<svg version="1.1" id="Layer_1" xmlns="http://www.w3.org/2000/svg" xmlns:xlink="http://www.w3.org/1999/xlink" x="0px" y="0px"
	 width="100%" viewBox="0 0 160 280" enable-background="new 0 0 160 280" xml:space="preserve">
<path fill="transparent" opacity="1.000000" stroke="none" 
	d="
M1.000000,111.000000 
	C1.000000,74.000008 1.000000,37.500023 1.000000,1.000025 
	C54.333309,1.000016 107.666618,1.000016 160.999939,1.000008 
	C160.999969,94.333282 160.999969,187.666565 160.999985,280.999878 
	C107.666740,280.999939 54.333473,280.999939 1.000106,280.999969 
	C1.000000,224.500000 1.000000,168.000000 1.000000,111.000000 
M104.761345,45.369495 
	C97.992836,36.675682 91.331795,27.894207 84.369308,19.358622 
	C82.895393,17.551685 80.319603,16.643547 77.525429,15.153144 
	C76.808365,15.305081 76.091301,15.457020 74.702919,15.255040 
	C72.961632,16.623592 70.885895,17.723574 69.535080,19.405691 
	C62.474270,28.198233 55.548290,37.100689 48.670517,46.038105 
	C41.817402,54.943485 35.076824,63.935467 28.354532,73.571564 
	C32.250629,80.320412 36.072517,87.113464 40.059998,93.807877 
	C46.237522,104.179092 52.613113,114.432854 58.742424,124.832085 
	C63.257195,132.492020 67.512718,140.304733 71.788116,148.458481 
	C71.788116,148.458481 71.808609,148.878098 71.185844,149.221390 
	C62.205406,152.571945 59.381718,156.639114 59.346378,166.402985 
	C59.315079,175.051483 59.316269,183.700226 59.348713,192.348694 
	C59.353951,193.743713 59.597015,195.137848 59.734680,196.579895 
	C67.699440,196.234894 71.235329,191.312866 73.913551,186.278000 
	C73.913551,209.805054 73.913551,233.332092 73.913551,256.896301 
	C81.167160,256.424927 84.801468,252.599258 84.952827,245.541580 
	C85.123734,237.572266 85.080978,229.598343 85.675385,222.086029 
	C88.102219,223.937683 90.529045,225.789337 94.091698,228.507629 
	C94.341591,223.620026 94.610260,220.673645 94.619606,217.726410 
	C94.642715,210.439133 94.558304,203.151382 94.496658,195.863983 
	C94.390160,183.273941 94.468628,170.677597 94.064262,158.096909 
	C93.875038,152.209351 90.954163,149.982925 84.045509,149.360199 
	C83.556114,149.243622 83.066719,149.127045 82.628792,148.256134 
	C83.566856,146.500778 84.458450,144.718689 85.449966,142.994064 
	C98.892609,119.612350 112.349136,96.238625 125.670242,72.248344 
	C118.770332,63.501545 111.870430,54.754745 104.761345,45.369495 
z"/>
<path fill="#476BAD" opacity="1.000000" stroke="none" 
	d="
M71.808609,148.878098 
	C71.808609,148.878098 71.788116,148.458481 72.162346,148.094986 
	C74.931168,142.992920 71.737694,139.040451 70.751694,134.766922 
	C70.333084,132.952606 70.203224,131.071686 69.844620,128.529846 
	C70.321846,128.739273 69.641586,128.239151 69.445580,128.385864 
	C67.454323,129.876648 65.544456,129.521698 64.701279,127.452629 
	C64.350647,126.592201 66.071320,125.040382 66.434898,123.691086 
	C66.764923,122.466293 66.848846,120.988571 66.471687,119.803650 
	C65.908005,118.032738 64.475952,116.503143 64.078484,114.722412 
	C63.441315,111.867775 63.348679,108.891602 62.961815,105.829025 
	C62.804398,105.645439 62.711060,105.599617 62.617718,105.553802 
	C62.734196,105.711166 62.850674,105.868538 62.916641,106.346626 
	C62.248844,106.042633 60.989326,105.071152 61.111156,104.845512 
	C62.787098,101.741570 63.023552,98.411293 63.002983,95.251694 
	C63.139912,95.766769 63.263348,96.040771 63.386787,96.314766 
	C63.510494,96.225845 63.746456,96.065552 63.741802,96.058228 
	C63.510830,95.694893 63.259228,95.344673 63.155312,94.756355 
	C63.548843,94.303772 64.049248,93.993683 64.008850,93.885452 
	C62.068691,88.687294 60.599884,83.433395 60.939602,77.771400 
	C61.033058,76.213776 60.340584,74.608986 60.225765,72.908432 
	C60.442791,72.791031 60.895241,72.593628 61.359741,72.695137 
	C72.176758,72.828865 82.529282,72.861084 92.922844,73.313400 
	C90.384926,87.060638 87.746719,100.376663 85.244820,113.718239 
	C83.048317,125.431229 81.004601,137.172867 78.493591,148.943176 
	C76.755409,149.033478 75.417030,149.082443 73.702133,149.076019 
	C72.819946,148.973145 72.314278,148.925613 71.808609,148.878098 
M65.158333,109.953705 
	C65.412621,109.801910 65.797371,109.699631 65.879745,109.482590 
	C65.945152,109.310242 65.640533,108.997459 65.500198,108.747025 
	C65.359406,108.997765 65.218605,109.248505 65.158333,109.953705 
z"/>
<path fill="#B92C60" opacity="1.000000" stroke="none" 
	d="
M78.893402,148.901855 
	C81.004601,137.172867 83.048317,125.431229 85.244820,113.718239 
	C87.746719,100.376663 90.384926,87.060638 92.993164,73.274208 
	C93.022438,72.814903 93.183456,72.814468 93.536743,72.848938 
	C94.595108,72.846336 95.300194,72.809273 96.470734,72.824898 
	C106.558212,72.872696 116.180214,72.867805 125.802223,72.862915 
	C112.349136,96.238625 98.892609,119.612350 85.449966,142.994064 
	C84.458450,144.718689 83.566856,146.500778 82.238014,148.635880 
	C80.862625,148.977707 79.878014,148.939789 78.893402,148.901855 
z"/>
<path fill="#ED3D24" opacity="1.000000" stroke="none" 
	d="
M78.493591,148.943176 
	C79.878014,148.939789 80.862625,148.977707 82.212280,149.013046 
	C83.066719,149.127045 83.556114,149.243622 84.455994,149.917236 
	C84.954697,174.191666 85.042923,197.909042 85.131149,221.626434 
	C85.080978,229.598343 85.123734,237.572266 84.952827,245.541580 
	C84.801468,252.599258 81.167160,256.424927 73.913551,256.896301 
	C73.913551,233.332092 73.913551,209.805054 73.888885,185.358490 
	C73.935707,172.669785 74.007179,160.900589 74.078659,149.131409 
	C75.417030,149.082443 76.755409,149.033478 78.493591,148.943176 
z"/>
<path fill="#4778B5" opacity="1.000000" stroke="none" 
	d="
M60.008743,73.025841 
	C60.340584,74.608986 61.033058,76.213776 60.939602,77.771400 
	C60.599884,83.433395 62.068691,88.687294 64.008850,93.885452 
	C64.049248,93.993683 63.548843,94.303772 63.150116,94.760086 
	C62.999500,95.000488 62.989491,95.010620 62.989491,95.010620 
	C63.023552,98.411293 62.787098,101.741570 61.111156,104.845512 
	C60.989326,105.071152 62.248844,106.042633 62.932663,106.333176 
	C62.999195,105.999001 63.025898,105.966789 63.025898,105.966789 
	C63.348679,108.891602 63.441315,111.867775 64.078484,114.722412 
	C64.475952,116.503143 65.908005,118.032738 66.471687,119.803650 
	C66.848846,120.988571 66.764923,122.466293 66.434898,123.691086 
	C66.071320,125.040382 64.350647,126.592201 64.701279,127.452629 
	C65.544456,129.521698 67.454323,129.876648 69.445580,128.385864 
	C69.641586,128.239151 70.321846,128.739273 69.844620,128.529846 
	C70.203224,131.071686 70.333084,132.952606 70.751694,134.766922 
	C71.737694,139.040451 74.931168,142.992920 72.210175,147.890442 
	C67.512718,140.304733 63.257195,132.492020 58.742424,124.832085 
	C52.613113,114.432854 46.237522,104.179092 40.059998,93.807877 
	C36.072517,87.113464 32.250629,80.320412 28.768806,73.223419 
	C39.458302,72.925468 49.733521,72.975655 60.008743,73.025841 
M58.315659,98.011719 
	C57.703636,98.336044 57.091610,98.660362 56.479591,98.984688 
	C56.776737,99.265961 57.073883,99.547234 57.371025,99.828506 
	C57.913536,99.218552 58.456043,98.608597 59.567520,97.927574 
	C59.890385,97.623138 60.213245,97.318695 60.536110,97.014259 
	C60.326138,96.832359 60.116165,96.650452 59.906193,96.468552 
	C59.604584,96.979530 59.302975,97.490501 58.315659,98.011719 
M56.397564,83.759926 
	C55.700985,83.821167 55.004402,83.882408 54.307823,83.943649 
	C54.819191,84.878807 55.330555,85.813965 55.841923,86.749123 
	C56.147861,86.626411 56.453800,86.503708 56.759739,86.380997 
	C56.846127,85.592041 56.932518,84.803085 57.286732,83.891731 
	C57.186226,83.921265 57.085724,83.950798 56.397564,83.759926 
M48.756084,83.078697 
	C43.305584,86.516716 49.480858,89.938858 48.131245,93.876434 
	C52.393257,90.500763 53.275883,84.231140 50.632954,79.413467 
	C50.182224,80.563843 49.770840,81.613785 48.756084,83.078697 
M59.336857,116.098259 
	C60.131107,115.366943 60.925354,114.635628 61.719601,113.904312 
	C61.266281,113.589195 60.812962,113.274086 60.359642,112.958969 
	C59.926487,113.827736 59.493332,114.696495 59.336857,116.098259 
z"/>
<path fill="#099146" opacity="1.000000" stroke="none" 
	d="
M92.952118,72.854095 
	C82.529282,72.861084 72.176758,72.828865 61.386089,72.324829 
	C65.756699,53.105000 70.565468,34.356979 75.374237,15.608957 
	C76.091301,15.457020 76.808365,15.305081 77.992760,15.563119 
	C82.256119,30.003313 86.052155,44.033531 89.811920,58.448654 
	C90.501175,61.215900 91.226685,63.598244 91.921181,66.346100 
	C92.245766,67.830544 92.601364,68.949478 92.978119,70.038742 
	C92.999275,70.009064 92.931938,70.036972 92.931610,70.387352 
	C93.015335,71.429977 93.099396,72.122223 93.183456,72.814468 
	C93.183456,72.814468 93.022438,72.814903 92.952118,72.854095 
z"/>
<path fill="#B9D344" opacity="1.000000" stroke="none" 
	d="
M75.038574,15.431999 
	C70.565468,34.356979 65.756699,53.105000 60.921589,72.223328 
	C60.895241,72.593628 60.442791,72.791031 60.225769,72.908432 
	C49.733521,72.975655 39.458302,72.925468 28.734993,72.882385 
	C35.076824,63.935467 41.817402,54.943485 48.670517,46.038105 
	C55.548290,37.100689 62.474270,28.198233 69.535080,19.405691 
	C70.885895,17.723574 72.961632,16.623592 75.038574,15.431999 
z"/>
<path fill="#BCD444" opacity="1.000000" stroke="none" 
	d="
M85.403267,221.856232 
	C85.042923,197.909042 84.954697,174.191666 84.805466,150.056305 
	C90.954163,149.982925 93.875038,152.209351 94.064262,158.096909 
	C94.468628,170.677597 94.390160,183.273941 94.496658,195.863983 
	C94.558304,203.151382 94.642715,210.439133 94.619606,217.726410 
	C94.610260,220.673645 94.341591,223.620026 94.091698,228.507629 
	C90.529045,225.789337 88.102219,223.937683 85.403267,221.856232 
z"/>
<path fill="#0D934B" opacity="1.000000" stroke="none" 
	d="
M73.702133,149.076035 
	C74.007179,160.900589 73.935707,172.669785 73.844894,184.844315 
	C71.235329,191.312866 67.699440,196.234894 59.734680,196.579895 
	C59.597015,195.137848 59.353951,193.743713 59.348713,192.348694 
	C59.316269,183.700226 59.315079,175.051483 59.346378,166.402985 
	C59.381718,156.639114 62.205406,152.571945 71.497223,149.049744 
	C72.314278,148.925613 72.819946,148.973145 73.702133,149.076035 
z"/>
<path fill="#F9B651" opacity="1.000000" stroke="none" 
	d="
M91.952194,65.980591 
	C91.226685,63.598244 90.501175,61.215900 90.162582,58.299026 
	C95.531151,55.895477 95.683853,51.243584 96.440659,46.242008 
	C96.908775,47.763428 97.115631,48.435726 97.458260,49.549294 
	C97.910103,48.288773 98.173866,47.552940 98.488182,46.676102 
	C98.887604,47.670738 99.226624,48.514938 99.600510,49.445969 
	C101.524208,48.214363 103.247360,47.111153 104.970520,46.007942 
	C111.870430,54.754745 118.770332,63.501545 125.736237,72.555634 
	C116.180214,72.867805 106.558212,72.872696 96.456772,72.469902 
	C94.962212,71.387131 93.947075,70.712051 92.931938,70.036972 
	C92.931938,70.036972 92.999275,70.009064 92.991318,69.663284 
	C92.639641,68.205200 92.295914,67.092896 91.952194,65.980591 
M99.636490,62.350784 
	C98.114655,62.350784 96.592819,62.350784 94.824974,62.350784 
	C95.064705,64.018166 95.310684,65.728966 95.498421,67.034737 
	C97.949760,66.785118 99.727127,66.604134 101.509346,66.432892 
	C101.999771,65.012375 102.490196,63.591846 103.003914,62.103836 
	C101.852760,62.103836 101.024467,62.103836 99.636490,62.350784 
M97.588882,52.515289 
	C97.588882,52.515289 97.476891,52.582134 97.588882,52.515289 
z"/>
<path fill="#F7BA55" opacity="1.000000" stroke="none" 
	d="
M104.865936,45.688717 
	C103.247360,47.111153 101.524208,48.214363 99.600510,49.445969 
	C99.226624,48.514938 98.887604,47.670738 98.488182,46.676102 
	C98.173866,47.552940 97.910103,48.288773 97.458260,49.549294 
	C97.115631,48.435726 96.908775,47.763428 96.440659,46.242008 
	C95.683853,51.243584 95.531151,55.895477 90.198837,57.914124 
	C86.052155,44.033531 82.256119,30.003313 78.355789,15.647194 
	C80.319603,16.643547 82.895393,17.551685 84.369308,19.358622 
	C91.331795,27.894207 97.992836,36.675682 104.865936,45.688717 
z"/>
<path fill="#4778B5" opacity="1.000000" stroke="none" 
	d="
M65.118073,109.726471 
	C65.218605,109.248505 65.359406,108.997765 65.500198,108.747025 
	C65.640533,108.997459 65.945152,109.310242 65.879745,109.482590 
	C65.797371,109.699631 65.412621,109.801910 65.118073,109.726471 
z"/>
<path fill="#4778B5" opacity="1.000000" stroke="none" 
	d="
M63.004692,94.996750 
	C63.259228,95.344673 63.510830,95.694893 63.741802,96.058228 
	C63.746456,96.065552 63.510494,96.225845 63.386787,96.314766 
	C63.263348,96.040771 63.139912,95.766769 63.002983,95.251694 
	C62.989491,95.010620 62.999500,95.000488 63.004692,94.996750 
z"/>
<path fill="#4778B5" opacity="1.000000" stroke="none" 
	d="
M62.983177,106.012451 
	C62.850674,105.868538 62.734196,105.711166 62.617718,105.553802 
	C62.711060,105.599617 62.804398,105.645439 62.961815,105.829025 
	C63.025898,105.966789 62.999195,105.999001 62.983177,106.012451 
z"/>
<path fill="#F8BA5C" opacity="1.000000" stroke="none" 
	d="
M92.931610,70.387352 
	C93.947075,70.712051 94.962212,71.387131 95.991310,72.417213 
	C95.300194,72.809273 94.595108,72.846336 93.536743,72.848938 
	C93.099396,72.122223 93.015335,71.429977 92.931610,70.387352 
z"/>
<path fill="#476BAD" opacity="1.000000" stroke="none" 
	d="
M49.057770,82.871216 
	C49.770840,81.613785 50.182224,80.563843 50.632954,79.413467 
	C53.275883,84.231140 52.393257,90.500763 48.131245,93.876434 
	C49.480858,89.938858 43.305584,86.516716 49.057770,82.871216 
z"/>
<path fill="#476BAD" opacity="1.000000" stroke="none" 
	d="
M57.018909,84.014130 
	C56.932518,84.803085 56.846127,85.592041 56.759739,86.380997 
	C56.453800,86.503708 56.147861,86.626411 55.841923,86.749123 
	C55.330555,85.813965 54.819191,84.878807 54.307823,83.943649 
	C55.004402,83.882408 55.700985,83.821167 56.698761,83.879662 
	C56.999962,83.999397 57.018909,84.014130 57.018909,84.014130 
z"/>
<path fill="#476BAD" opacity="1.000000" stroke="none" 
	d="
M59.198517,115.831757 
	C59.493332,114.696495 59.926487,113.827736 60.359642,112.958969 
	C60.812962,113.274086 61.266281,113.589195 61.719601,113.904312 
	C60.925354,114.635628 60.131107,115.366943 59.198517,115.831757 
z"/>
<path fill="#476BAD" opacity="1.000000" stroke="none" 
	d="
M58.998554,97.998642 
	C58.456043,98.608597 57.913536,99.218552 57.371025,99.828506 
	C57.073883,99.547234 56.776737,99.265961 56.479588,98.984680 
	C57.091610,98.660362 57.703636,98.336044 58.657829,98.005859 
	C59.000000,98.000000 58.998554,97.998642 58.998554,97.998642 
z"/>
<path fill="#476BAD" opacity="1.000000" stroke="none" 
	d="
M59.000683,98.000740 
	C59.302975,97.490501 59.604584,96.979530 59.906193,96.468552 
	C60.116165,96.650452 60.326138,96.832359 60.536110,97.014259 
	C60.213245,97.318695 59.890385,97.623138 59.283035,97.963104 
	C58.998554,97.998642 59.000000,98.000000 59.000683,98.000740 
z"/>
<path fill="#476BAD" opacity="1.000000" stroke="none" 
	d="
M56.992592,83.989861 
	C57.085724,83.950798 57.186226,83.921265 57.152821,83.952927 
	C57.018909,84.014130 56.999962,83.999397 56.992592,83.989861 
z"/>
<path fill="#F8BA5C" opacity="1.000000" stroke="none" 
	d="
M91.921181,66.346100 
	C92.295914,67.092896 92.639641,68.205200 92.970169,69.692963 
	C92.601364,68.949478 92.245766,67.830544 91.921181,66.346100 
z"/>
<path fill="#F8BA5C" opacity="1.000000" stroke="none" 
	d="
M99.916328,62.227310 
	C101.024467,62.103836 101.852760,62.103836 103.003914,62.103836 
	C102.490196,63.591846 101.999771,65.012375 101.506912,66.428017 
	C99.727127,66.604134 97.949760,66.785118 95.498421,67.034737 
	C95.310684,65.728966 95.064705,64.018166 94.824974,62.350784 
	C96.592819,62.350784 98.114655,62.350784 99.916328,62.227310 
z"/>
<path fill="#F7BA55" opacity="1.000000" stroke="none" 
	d="
M97.532883,52.548714 
	C97.476891,52.582134 97.588882,52.515289 97.532883,52.548714 
z"/>
</svg>