<svg version="1.1" id="Layer_1" xmlns="http://www.w3.org/2000/svg" xmlns:xlink="http://www.w3.org/1999/xlink" x="0px" y="0px"
	 width="100%" viewBox="0 0 1600 586" enable-background="new 0 0 1600 586" xml:space="preserve">
<path fill="transparent" opacity="1.000000" stroke="none" 
	d="
M1.000000,318.000000 
	C1.000000,212.413803 1.000000,106.827599 1.000000,1.000000 
	C81.358086,1.000000 161.716415,1.000000 242.859116,1.267904 
	C231.037186,22.100979 218.430878,42.666149 205.689316,63.451950 
	C219.767380,64.328766 233.202866,65.288803 246.652664,65.963860 
	C257.221893,66.494347 267.821716,66.469360 278.379486,67.139397 
	C281.313660,67.325607 285.132935,68.292679 286.817657,70.330505 
	C290.183228,74.401505 292.318665,79.481117 295.022888,84.108704 
	C304.028931,99.520180 313.061829,114.915947 322.372559,130.599167 
	C332.523651,131.584686 342.378845,132.434219 352.251312,132.958908 
	C367.274292,133.757370 382.305023,134.526855 397.342316,134.849442 
	C400.723724,134.921982 402.484924,136.219009 403.914764,138.672028 
	C411.291595,151.327652 418.613281,164.015411 425.946838,176.696243 
	C430.040924,183.775513 434.120667,190.863083 438.312897,198.130722 
	C439.083252,197.314529 439.523773,197.009491 439.746185,196.589050 
	C455.445496,166.911575 471.131226,137.226898 486.808899,107.537987 
	C493.201569,95.432159 499.514587,83.283699 505.996002,71.225677 
	C507.665527,68.119736 506.601837,66.635216 503.902252,64.918770 
	C490.027802,56.097313 476.299255,47.046913 462.471283,38.151814 
	C446.047333,27.586851 429.544617,17.144009 413.156006,6.524865 
	C410.870331,5.043843 409.040710,2.859026 407.000000,1.000006 
	C698.358215,1.000000 989.716492,1.000000 1281.855957,1.276666 
	C1281.285034,2.410251 1279.984985,3.366685 1278.572144,4.108331 
	C1266.763916,10.307208 1254.934814,16.466614 1242.704590,22.850550 
	C1267.185791,67.888725 1291.652954,112.900917 1316.270386,158.189758 
	C1330.295776,136.691986 1344.084351,115.746849 1357.594116,94.623306 
	C1359.404297,91.792793 1361.247437,90.941467 1364.335205,90.954193 
	C1385.495605,91.041405 1406.656494,91.000168 1427.817261,91.000298 
	C1429.510132,91.000313 1431.203125,91.000305 1433.649658,91.000305 
	C1416.832520,64.654045 1400.591919,39.334179 1384.520752,13.907157 
	C1381.957153,9.851315 1380.154419,5.314525 1378.000000,1.000019 
	C1452.286011,1.000000 1526.572144,1.000000 1601.000000,1.000000 
	C1601.000000,149.358200 1601.000000,297.716461 1600.559937,446.537354 
	C1593.463257,446.195984 1586.790039,445.509552 1580.153809,444.562653 
	C1567.718994,442.788452 1555.311279,440.825073 1542.881714,439.012573 
	C1531.773438,437.392731 1520.650879,435.870056 1509.197998,434.257080 
	C1508.802246,436.617859 1508.298096,438.998688 1508.018066,441.405579 
	C1506.939087,450.681488 1506.000244,459.974030 1504.878662,469.244629 
	C1503.661377,479.308136 1502.234985,489.346405 1501.018677,499.410034 
	C1499.898071,508.681793 1498.991211,517.979187 1497.890015,527.253418 
	C1496.307495,540.580505 1494.694214,553.904541 1492.974731,567.214417 
	C1492.120361,573.827393 1491.000000,580.405884 1490.000000,587.000000 
	C993.796631,587.000000 497.593323,587.000000 1.389973,586.995483 
	C1.259994,586.995483 1.130003,586.926697 1.000006,586.890015 
	C1.000000,542.235168 1.000000,497.580231 1.328370,452.351257 
	C11.493322,445.503296 21.291733,439.167511 31.221273,433.044373 
	C32.299553,432.379425 34.340012,432.472198 35.587254,433.013245 
	C44.056522,436.687073 52.431828,440.577423 60.838989,444.394562 
	C73.642334,450.207703 86.446877,456.018219 99.556908,461.713989 
	C122.145851,447.523499 144.428787,433.448944 166.635452,419.422546 
	C188.462646,429.389771 210.328415,439.374634 233.539856,449.973999 
	C226.907028,400.198547 220.446548,351.716461 213.911804,302.677094 
	C206.813141,303.141388 200.252289,303.646088 193.682755,303.980957 
	C185.588531,304.393585 177.488434,304.702667 169.388504,304.989380 
	C149.860870,305.680573 130.329697,306.277588 110.804443,307.029114 
	C103.597618,307.306519 96.403366,307.910614 88.571045,308.405670 
	C89.067513,313.137207 89.701271,317.524597 89.960304,321.934052 
	C91.035194,340.231628 91.996033,358.535919 93.000763,376.837616 
	C93.344688,383.102448 93.649162,389.369812 94.050850,395.630981 
	C94.957077,409.756744 95.912712,423.879364 96.504089,437.765808 
	C96.087662,435.037354 96.246178,432.514191 95.903496,430.060974 
	C94.348640,418.929993 92.517769,407.836609 91.041389,396.695862 
	C89.217262,382.931030 87.720497,369.123047 85.941849,355.351868 
	C84.396576,343.387634 82.571861,331.459320 81.058449,319.491333 
	C80.664841,316.378632 79.753036,314.687988 76.242279,314.959198 
	C66.237923,315.732086 56.228214,316.560852 46.204506,316.928864 
	C31.143528,317.481750 16.068851,317.661560 1.000000,318.000000 
M776.771484,335.273468 
	C788.569031,351.211395 800.366638,367.149292 812.675842,383.778412 
	C822.368958,358.947113 831.704956,335.030457 841.655762,310.835297 
	C844.409973,308.583496 847.164124,306.331696 849.720764,304.768829 
	C843.490356,319.559814 837.212280,334.330963 831.043457,349.147614 
	C825.322021,362.889709 819.717285,376.680420 813.863770,390.930267 
	C816.543518,390.930267 818.843750,391.136322 821.096191,390.895660 
	C832.650146,389.661316 844.185059,388.247498 855.740234,387.025269 
	C863.579712,386.196106 871.533813,386.098724 879.268433,384.726013 
	C887.481506,383.268311 895.251343,381.462524 899.710999,391.185791 
	C899.906372,391.611633 900.430908,391.874573 900.746399,392.259125 
	C907.499573,400.489655 914.260376,408.714081 920.987061,416.966217 
	C927.022034,424.369781 933.017822,431.805237 939.709106,440.063599 
	C955.788391,392.655823 971.535278,346.228241 987.316528,299.699280 
	C977.608887,295.299103 968.315613,291.086792 959.269653,286.253479 
	C964.449585,279.739624 969.613037,273.212646 974.813293,266.715057 
	C981.946045,257.802979 983.036377,257.650024 992.052490,258.997498 
	C1003.194702,260.662781 1014.427002,261.734650 1025.628418,262.991211 
	C1035.374390,264.084503 1045.131470,265.078156 1055.243896,266.702942 
	C1056.478027,265.859772 1057.997314,265.248444 1058.901489,264.136810 
	C1066.435791,254.873077 1073.833618,245.498505 1081.318237,236.194122 
	C1089.529541,225.986572 1097.789185,215.818115 1106.049561,205.605713 
	C1130.232910,207.985382 1154.469727,210.370331 1179.385620,212.822083 
	C1157.169312,168.354523 1135.176636,124.334618 1113.082031,80.110687 
	C1108.837646,81.682793 1104.275024,83.296532 1099.769043,85.055099 
	C1081.483521,92.191513 1063.225464,99.398750 1044.937378,106.528610 
	C1030.273682,112.245399 1015.568604,117.855942 1000.913574,123.594444 
	C998.356384,124.595764 995.981934,125.319725 997.768188,129.514435 
	C1012.081848,163.128265 1026.123779,196.858093 1040.168579,230.585831 
	C1042.271362,235.635483 1043.957153,240.858826 1045.237549,245.649551 
	C1035.016968,224.802734 1024.787598,203.960312 1014.578918,183.107681 
	C1006.954529,167.533737 999.373413,151.938583 991.727173,136.375397 
	C990.741516,134.369217 990.106201,132.087494 986.654114,133.633835 
	C980.419189,136.426727 973.933716,138.660706 967.551147,141.123550 
	C945.824951,149.507095 924.095398,157.882050 902.372437,166.273987 
	C892.563110,170.063477 882.766357,173.885254 872.749268,177.775772 
	C880.285095,196.202316 887.699158,214.281326 895.071655,232.377289 
	C899.359802,242.902664 903.581238,253.455200 907.104614,263.974335 
	C904.109436,262.634094 901.114197,261.293884 898.013184,259.175507 
	C897.982849,258.677460 898.070007,258.136353 897.905396,257.687531 
	C888.424133,231.826828 878.921997,205.973785 869.486145,180.294952 
	C856.720947,183.641113 844.038879,186.973938 831.352173,190.288849 
	C814.886169,194.591263 798.416504,198.879395 781.224548,203.013489 
	C772.387024,198.648773 763.549500,194.284058 754.246399,189.689362 
	C749.568970,199.616592 744.976746,209.362976 740.067078,218.301132 
	C740.619995,213.957291 737.499207,215.089325 735.034851,214.255630 
	C738.087769,206.079956 741.140686,197.904282 744.210327,189.683823 
	C708.397461,171.623093 672.945923,153.871109 637.661499,135.792984 
	C633.162476,133.487900 631.650391,134.235184 629.673340,138.574844 
	C621.820374,155.811478 613.558838,172.861557 605.506775,190.008026 
	C602.244446,196.955048 599.261475,204.035065 595.920227,210.942764 
	C590.376831,222.403259 584.646484,233.773361 578.209473,245.053177 
	C575.485474,245.662796 572.761536,246.272415 570.027222,246.141312 
	C572.361755,241.012695 574.696167,235.884018 577.030701,230.755432 
	C588.524231,205.506210 600.027283,180.261292 611.505493,155.005142 
	C614.778687,147.803024 617.780823,140.469666 621.288513,133.385269 
	C623.413940,129.092758 623.207031,126.932930 618.335388,124.504570 
	C606.783936,118.746605 595.641541,112.157097 584.412903,105.764763 
	C561.134583,92.512642 537.907654,79.170204 514.563782,65.810043 
	C490.307281,111.257874 466.196503,156.432663 441.865265,202.020493 
	C469.214996,202.020493 495.849091,202.020493 522.229614,202.020493 
	C532.584045,217.774582 542.793152,233.307541 552.269165,249.219009 
	C550.363281,249.528870 548.458740,249.846848 546.551331,250.147263 
	C536.263794,251.767548 525.977844,253.398956 515.686707,254.996124 
	C506.835388,256.369843 497.956665,257.586945 489.147400,259.188660 
	C487.937927,259.408569 486.029785,261.611969 486.188141,262.624390 
	C487.718201,272.405273 489.616302,282.128754 491.419006,291.866852 
	C493.606293,303.682007 495.829742,315.490570 497.988708,327.310883 
	C500.529266,341.220459 503.056091,355.132782 505.514313,369.057068 
	C507.039795,377.698090 508.426788,386.363586 509.225067,394.596222 
	C504.751282,375.903564 500.310699,357.202850 495.791687,338.521118 
	C492.919037,326.645508 489.938660,314.795868 486.990326,302.938599 
	C483.935699,290.653748 480.861511,278.373779 477.663605,265.561920 
	C436.178406,271.866577 395.157135,278.100769 353.733215,284.396118 
	C362.708954,335.132507 371.619720,385.501648 380.533508,435.888031 
	C381.179321,435.757202 381.574371,435.793457 381.798950,435.615112 
	C401.457977,420.005127 421.070984,404.336639 440.823883,388.846558 
	C442.158783,387.799744 444.779602,387.349091 446.400177,387.870697 
	C463.590271,393.403809 480.679932,399.247955 497.841766,404.870544 
	C502.778748,406.488037 507.859100,407.667786 512.997375,409.753967 
	C513.809021,409.856476 514.909790,410.347961 515.383606,409.995880 
	C517.752686,408.235413 519.920349,406.207550 522.225891,404.357208 
	C538.830505,391.030945 555.421509,377.687256 572.117737,364.476624 
	C573.618958,363.288818 576.129822,361.999695 577.669067,362.455444 
	C589.945862,366.090607 602.109009,370.111725 614.291443,374.062592 
	C624.386963,377.336639 634.461365,380.675995 645.115601,384.173676 
	C644.903076,382.088165 644.934021,380.602020 644.581909,379.212952 
	C640.755432,364.115601 636.828491,349.043671 633.008362,333.944672 
	C627.631348,312.692261 622.321411,291.422852 617.817627,270.030579 
	C619.779785,270.009003 621.741882,269.987396 623.954285,270.783173 
	C625.655884,279.218658 627.162537,287.699036 629.093994,296.081543 
	C636.222351,327.018311 643.491089,357.922760 650.775330,389.131622 
	C651.631958,388.789764 652.671753,388.650299 653.325012,388.073242 
	C665.548340,377.274567 677.724976,366.423065 689.913269,355.584778 
	C695.940063,350.225555 701.813843,344.674438 708.104126,339.644531 
	C709.788452,338.297699 712.983032,337.657013 715.085999,338.209106 
	C728.395996,341.703430 741.587097,345.648895 754.831543,349.395538 
	C763.765625,351.922882 772.722839,354.368317 781.483337,356.798706 
	C779.659302,349.362488 777.900696,342.193176 776.771484,335.273468 
M1214.979614,523.771240 
	C1215.850952,524.235901 1216.883179,525.274719 1217.570190,525.082092 
	C1240.832520,518.560486 1264.051147,511.882538 1287.318237,505.378296 
	C1289.086670,504.883911 1291.820801,504.725677 1293.000366,505.721252 
	C1305.942139,516.644287 1318.648315,527.846069 1331.453613,538.931641 
	C1336.605347,543.391479 1341.843628,547.751404 1347.738647,552.746643 
	C1347.923462,549.051392 1347.813965,546.279236 1348.239624,543.591797 
	C1350.074341,532.005066 1352.084106,520.446106 1353.994873,508.871216 
	C1355.614380,499.059723 1357.208984,489.243958 1358.771118,479.423126 
	C1360.539429,468.306458 1362.291504,457.186981 1363.990845,446.059570 
	C1365.814209,434.118683 1367.259033,422.107849 1369.532715,410.254852 
	C1370.256958,406.479370 1369.151367,405.694855 1366.145630,404.972351 
	C1353.519897,401.937439 1340.907959,398.841980 1328.315918,395.669922 
	C1306.459106,390.164001 1284.622681,384.576233 1262.772583,379.043671 
	C1258.091187,377.858337 1253.387329,376.761810 1248.193237,375.503082 
	C1247.356934,380.178894 1246.803101,384.188690 1245.909790,388.121460 
	C1239.976196,414.248260 1233.974365,440.359558 1227.985718,466.473877 
	C1224.733154,480.657257 1221.463257,494.836670 1218.036865,508.168091 
	C1219.869263,496.210724 1221.657349,484.246338 1223.547241,472.298096 
	C1225.309204,461.158356 1227.168335,450.033905 1229.005737,438.906189 
	C1230.895386,427.462860 1232.850098,416.030151 1234.701660,404.580688 
	C1236.155396,395.590759 1237.495605,386.582458 1238.897095,377.513489 
	C1198.362671,367.195251 1158.036377,356.930023 1117.332275,346.568573 
	C1105.758057,397.017578 1094.339478,446.788422 1082.801270,497.080627 
	C1105.300903,490.784424 1127.068970,484.750305 1148.797363,478.576782 
	C1155.096069,476.787140 1160.638550,475.041321 1166.562500,480.783752 
	C1178.403687,492.262207 1191.023926,502.940918 1203.411133,513.849365 
	C1207.069946,517.071533 1211.025391,519.957092 1214.979614,523.771240 
M314.762085,408.942444 
	C333.562317,416.018402 352.362549,423.094391 371.612915,430.339783 
	C362.174377,381.604950 352.839844,333.407227 343.436157,284.852417 
	C302.019897,289.086731 260.692535,293.311981 218.594009,297.616058 
	C225.031387,348.379242 231.474976,399.191223 238.012619,450.745026 
	C242.775909,447.360962 246.592529,444.671844 250.385986,441.950439 
	C264.758667,431.639557 279.463531,421.749756 293.349152,410.819611 
	C300.343903,405.313660 306.437256,402.877197 314.762085,408.942444 
M1365.980835,554.463562 
	C1384.774048,548.274719 1403.556641,542.052612 1422.381104,535.960327 
	C1423.881958,535.474548 1426.149902,535.215576 1427.247925,535.995972 
	C1432.304810,539.589905 1437.084473,543.575500 1441.942383,547.447205 
	C1455.477905,558.235046 1469.003052,569.036194 1483.263428,580.415527 
	C1488.778442,530.873169 1494.204468,482.129791 1499.683960,432.906677 
	C1458.801514,424.586609 1418.246826,416.333282 1376.783936,407.895081 
	C1367.739014,458.463287 1358.706787,508.959930 1349.605225,559.844849 
	C1355.372314,558.022949 1360.331177,556.456360 1365.980835,554.463562 
M1076.473145,480.022247 
	C1077.994141,474.720093 1079.566650,469.432068 1081.026733,464.113220 
	C1086.048950,445.818024 1091.003906,427.504333 1096.037476,409.212250 
	C1101.332153,389.971832 1106.486816,370.688538 1112.167847,351.562103 
	C1113.468872,347.181732 1111.917480,346.203033 1108.500488,344.945496 
	C1091.442017,338.667511 1074.448608,332.212708 1057.436157,325.809845 
	C1038.137817,318.546631 1018.833313,311.299835 999.559937,303.971069 
	C996.957886,302.981567 995.895203,302.932709 994.791443,306.227814 
	C988.043152,326.374878 980.911743,346.393982 973.855225,366.437134 
	C968.629578,381.280029 963.247803,396.068237 958.077393,410.930176 
	C953.871399,423.020264 949.875916,435.183594 945.623230,447.800659 
	C947.912109,447.800659 949.722473,448.042419 951.446106,447.758392 
	C958.517090,446.593140 965.552246,445.212463 972.617981,444.013092 
	C986.276428,441.694611 999.962830,439.536957 1013.604797,437.127075 
	C1020.109375,435.978027 1026.036499,435.165985 1030.587402,441.872223 
	C1033.616089,446.335480 1037.884766,449.946594 1041.505005,454.022095 
	C1045.431885,458.442566 1049.146729,463.054260 1053.139404,467.412689 
	C1059.804077,474.687958 1066.616211,481.827972 1074.135864,489.845367 
	C1074.945801,486.044769 1075.510132,483.396545 1076.473145,480.022247 
M1259.072021,71.414360 
	C1250.880249,56.623077 1242.688354,41.831802 1234.432739,26.925398 
	C1196.212280,43.847034 1158.117188,60.713215 1119.768433,77.691681 
	C1141.667114,124.214645 1163.459839,170.512589 1185.447876,217.225525 
	C1190.252563,210.660049 1194.740356,204.479797 1199.278198,198.336517 
	C1209.836792,184.042389 1220.361694,169.722290 1231.085571,155.552933 
	C1232.110352,154.198944 1234.460815,153.069855 1236.155151,153.123474 
	C1250.681641,153.583328 1265.198975,154.333084 1279.717651,155.026489 
	C1280.518677,155.064743 1281.301025,155.495804 1282.102173,155.534576 
	C1290.010620,155.917313 1297.921387,156.255707 1306.252075,156.625336 
	C1301.081177,147.317444 1296.173828,138.533844 1291.313354,129.724335 
	C1280.704590,110.495941 1270.119507,91.254387 1259.072021,71.414360 
z"/>
<path fill="#FF4D52" opacity="1.000000" stroke="none" 
	d="
M406.562500,1.000006 
	C409.040710,2.859026 410.870331,5.043843 413.156006,6.524865 
	C429.544617,17.144009 446.047333,27.586851 462.471283,38.151814 
	C476.299255,47.046913 490.027802,56.097313 503.902252,64.918770 
	C506.601837,66.635216 507.665527,68.119736 505.996002,71.225677 
	C499.514587,83.283699 493.201569,95.432159 486.808899,107.537987 
	C471.131226,137.226898 455.445496,166.911575 439.746185,196.589050 
	C439.523773,197.009491 439.083252,197.314529 438.312897,198.130722 
	C434.120667,190.863083 430.040924,183.775513 425.946838,176.696243 
	C418.613281,164.015411 411.291595,151.327652 403.914764,138.672028 
	C402.484924,136.219009 400.723724,134.921982 397.342316,134.849442 
	C382.305023,134.526855 367.274292,133.757370 352.251312,132.958908 
	C342.378845,132.434219 332.523651,131.584686 322.652710,130.384094 
	C327.484497,121.590302 332.324219,113.293022 337.488129,104.842346 
	C338.556396,102.775009 339.300507,100.861069 340.000244,98.955132 
	C339.955841,98.963127 339.964386,99.052948 340.246918,99.367188 
	C346.465240,90.197044 352.453064,80.744743 358.326050,71.221626 
	C370.607208,51.307541 382.875854,31.385292 395.025238,11.390802 
	C397.009491,8.125286 398.357758,4.473333 400.000000,0.999996 
	C402.041656,1.000000 404.083344,1.000000 406.562500,1.000006 
z"/>
<path fill="#FF4D52" opacity="1.000000" stroke="none" 
	d="
M1377.531250,1.000019 
	C1380.154419,5.314525 1381.957153,9.851315 1384.520752,13.907157 
	C1400.591919,39.334179 1416.832520,64.654045 1433.649658,91.000305 
	C1431.203125,91.000305 1429.510132,91.000313 1427.817261,91.000298 
	C1406.656494,91.000168 1385.495605,91.041405 1364.335205,90.954193 
	C1361.247437,90.941467 1359.404297,91.792793 1357.594116,94.623306 
	C1344.084351,115.746849 1330.295776,136.691986 1316.270386,158.189758 
	C1291.652954,112.900917 1267.185791,67.888725 1242.704590,22.850550 
	C1254.934814,16.466614 1266.763916,10.307208 1278.572144,4.108331 
	C1279.984985,3.366685 1281.285034,2.410251 1282.318604,1.276666 
	C1313.687622,1.000000 1345.375122,1.000000 1377.531250,1.000019 
z"/>
<path fill="#FF4D52" opacity="1.000000" stroke="none" 
	d="
M1490.416626,587.000000 
	C1491.000000,580.405884 1492.120361,573.827393 1492.974731,567.214417 
	C1494.694214,553.904541 1496.307495,540.580505 1497.890015,527.253418 
	C1498.991211,517.979187 1499.898071,508.681793 1501.018677,499.410034 
	C1502.234985,489.346405 1503.661377,479.308136 1504.878662,469.244629 
	C1506.000244,459.974030 1506.939087,450.681488 1508.018066,441.405579 
	C1508.298096,438.998688 1508.802246,436.617859 1509.197998,434.257080 
	C1520.650879,435.870056 1531.773438,437.392731 1542.881714,439.012573 
	C1555.311279,440.825073 1567.718994,442.788452 1580.153809,444.562653 
	C1586.790039,445.509552 1593.463257,446.195984 1600.559937,447.000000 
	C1601.000000,492.020905 1601.000000,537.041809 1600.663208,582.434692 
	C1589.266479,575.065308 1578.242065,567.271851 1567.094238,559.659119 
	C1565.914795,558.853699 1563.761597,558.469727 1562.479370,558.968201 
	C1540.414551,567.547241 1518.411499,576.285461 1496.423096,585.059204 
	C1495.791260,585.311279 1495.467407,586.335693 1495.000000,587.000000 
	C1493.611084,587.000000 1492.222168,587.000000 1490.416626,587.000000 
z"/>
<path fill="#C8CC00" opacity="1.000000" stroke="none" 
	d="
M337.163971,104.995743 
	C332.324219,113.293022 327.484497,121.590302 322.364594,130.102661 
	C313.061829,114.915947 304.028931,99.520180 295.022888,84.108704 
	C292.318665,79.481117 290.183228,74.401505 286.817657,70.330505 
	C285.132935,68.292679 281.313660,67.325607 278.379486,67.139397 
	C267.821716,66.469360 257.221893,66.494347 246.652664,65.963860 
	C233.202866,65.288803 219.767380,64.328766 205.689316,63.451950 
	C218.430878,42.666149 231.037186,22.100979 243.321747,1.267904 
	C292.020905,1.000000 341.041779,1.000000 390.431702,1.343822 
	C382.515259,17.566807 374.281891,33.473476 365.922302,49.313545 
	C361.741730,57.235096 357.201080,64.967430 353.058899,72.908234 
	C348.551605,81.548843 344.317566,90.331970 339.964386,99.052948 
	C339.964386,99.052948 339.955841,98.963127 339.665131,99.077011 
	C338.637604,101.125839 337.900787,103.060791 337.163971,104.995743 
z"/>
<path fill="#C8CC00" opacity="1.000000" stroke="none" 
	d="
M99.250900,461.829895 
	C86.446877,456.018219 73.642334,450.207703 60.838989,444.394562 
	C52.431828,440.577423 44.056522,436.687073 35.587254,433.013245 
	C34.340012,432.472198 32.299553,432.379425 31.221273,433.044373 
	C21.291733,439.167511 11.493322,445.503296 1.328370,451.888611 
	C1.000000,407.645782 1.000000,363.291534 1.000000,318.468658 
	C16.068851,317.661560 31.143528,317.481750 46.204506,316.928864 
	C56.228214,316.560852 66.237923,315.732086 76.242279,314.959198 
	C79.753036,314.687988 80.664841,316.378632 81.058449,319.491333 
	C82.571861,331.459320 84.396576,343.387634 85.941849,355.351868 
	C87.720497,369.123047 89.217262,382.931030 91.041389,396.695862 
	C92.517769,407.836609 94.348640,418.929993 95.903496,430.060974 
	C96.246178,432.514191 96.087662,435.037354 96.560837,438.187561 
	C97.724792,446.507812 98.487846,454.168854 99.250900,461.829895 
z"/>
<path fill="transparent" opacity="1.000000" stroke="none" 
	d="
M1495.468628,587.000000 
	C1495.467407,586.335693 1495.791260,585.311279 1496.423096,585.059204 
	C1518.411499,576.285461 1540.414551,567.547241 1562.479370,558.968201 
	C1563.761597,558.469727 1565.914795,558.853699 1567.094238,559.659119 
	C1578.242065,567.271851 1589.266479,575.065308 1600.663208,582.903320 
	C1601.000000,584.328003 1601.000000,585.656006 1601.000000,587.000000 
	C1565.979126,587.000000 1530.958130,587.000000 1495.468628,587.000000 
z"/>
<path fill="transparent" opacity="1.000000" stroke="none" 
	d="
M340.246918,99.367188 
	C344.317566,90.331970 348.551605,81.548843 353.058899,72.908234 
	C357.201080,64.967430 361.741730,57.235096 365.922302,49.313545 
	C374.281891,33.473476 382.515259,17.566807 390.900391,1.343822 
	C393.700012,1.000000 396.400024,1.000000 399.549988,0.999996 
	C398.357758,4.473333 397.009491,8.125286 395.025238,11.390802 
	C382.875854,31.385292 370.607208,51.307541 358.326050,71.221626 
	C352.453064,80.744743 346.465240,90.197044 340.246918,99.367188 
z"/>
<path fill="#FF7900" opacity="1.000000" stroke="none" 
	d="
M1045.835815,246.001831 
	C1043.957153,240.858826 1042.271362,235.635483 1040.168579,230.585831 
	C1026.123779,196.858093 1012.081848,163.128265 997.768188,129.514435 
	C995.981934,125.319725 998.356384,124.595764 1000.913574,123.594444 
	C1015.568604,117.855942 1030.273682,112.245399 1044.937378,106.528610 
	C1063.225464,99.398750 1081.483521,92.191513 1099.769043,85.055099 
	C1104.275024,83.296532 1108.837646,81.682793 1113.082031,80.110687 
	C1135.176636,124.334618 1157.169312,168.354523 1179.385620,212.822083 
	C1154.469727,210.370331 1130.232910,207.985382 1106.049561,205.605713 
	C1097.789185,215.818115 1089.529541,225.986572 1081.318237,236.194122 
	C1073.833618,245.498505 1066.435791,254.873077 1058.901489,264.136810 
	C1057.997314,265.248444 1056.478027,265.859772 1055.096924,266.040558 
	C1051.911865,258.919403 1048.873901,252.460602 1045.835815,246.001831 
z"/>
<path fill="#1FB3A5" opacity="1.000000" stroke="none" 
	d="
M512.873718,409.048218 
	C507.859100,407.667786 502.778748,406.488037 497.841766,404.870544 
	C480.679932,399.247955 463.590271,393.403809 446.400177,387.870697 
	C444.779602,387.349091 442.158783,387.799744 440.823883,388.846558 
	C421.070984,404.336639 401.457977,420.005127 381.798950,435.615112 
	C381.574371,435.793457 381.179321,435.757202 380.533508,435.888031 
	C371.619720,385.501648 362.708954,335.132507 353.733215,284.396118 
	C395.157135,278.100769 436.178406,271.866577 477.663605,265.561920 
	C480.861511,278.373779 483.935699,290.653748 486.990326,302.938599 
	C489.938660,314.795868 492.919037,326.645508 495.791687,338.521118 
	C500.310699,357.202850 504.751282,375.903564 509.614105,395.220032 
	C510.960022,400.245331 511.916870,404.646759 512.873718,409.048218 
z"/>
<path fill="#1FB3A5" opacity="1.000000" stroke="none" 
	d="
M1214.844849,522.996887 
	C1211.025391,519.957092 1207.069946,517.071533 1203.411133,513.849365 
	C1191.023926,502.940918 1178.403687,492.262207 1166.562500,480.783752 
	C1160.638550,475.041321 1155.096069,476.787140 1148.797363,478.576782 
	C1127.068970,484.750305 1105.300903,490.784424 1082.801270,497.080627 
	C1094.339478,446.788422 1105.758057,397.017578 1117.332275,346.568573 
	C1158.036377,356.930023 1198.362671,367.195251 1238.897095,377.513489 
	C1237.495605,386.582458 1236.155396,395.590759 1234.701660,404.580688 
	C1232.850098,416.030151 1230.895386,427.462860 1229.005737,438.906189 
	C1227.168335,450.033905 1225.309204,461.158356 1223.547241,472.298096 
	C1221.657349,484.246338 1219.869263,496.210724 1217.944824,508.964325 
	C1216.850098,514.172668 1215.847534,518.584778 1214.844849,522.996887 
z"/>
<path fill="#FF7900" opacity="1.000000" stroke="none" 
	d="
M1214.912231,523.384033 
	C1215.847534,518.584778 1216.850098,514.172668 1218.026978,509.389221 
	C1221.463257,494.836670 1224.733154,480.657257 1227.985718,466.473877 
	C1233.974365,440.359558 1239.976196,414.248260 1245.909790,388.121460 
	C1246.803101,384.188690 1247.356934,380.178894 1248.193237,375.503082 
	C1253.387329,376.761810 1258.091187,377.858337 1262.772583,379.043671 
	C1284.622681,384.576233 1306.459106,390.164001 1328.315918,395.669922 
	C1340.907959,398.841980 1353.519897,401.937439 1366.145630,404.972351 
	C1369.151367,405.694855 1370.256958,406.479370 1369.532715,410.254852 
	C1367.259033,422.107849 1365.814209,434.118683 1363.990845,446.059570 
	C1362.291504,457.186981 1360.539429,468.306458 1358.771118,479.423126 
	C1357.208984,489.243958 1355.614380,499.059723 1353.994873,508.871216 
	C1352.084106,520.446106 1350.074341,532.005066 1348.239624,543.591797 
	C1347.813965,546.279236 1347.923462,549.051392 1347.738647,552.746643 
	C1341.843628,547.751404 1336.605347,543.391479 1331.453613,538.931641 
	C1318.648315,527.846069 1305.942139,516.644287 1293.000366,505.721252 
	C1291.820801,504.725677 1289.086670,504.883911 1287.318237,505.378296 
	C1264.051147,511.882538 1240.832520,518.560486 1217.570190,525.082092 
	C1216.883179,525.274719 1215.850952,524.235901 1214.912231,523.384033 
z"/>
<path fill="#FFDB7C" opacity="1.000000" stroke="none" 
	d="
M314.414856,408.748840 
	C306.437256,402.877197 300.343903,405.313660 293.349152,410.819611 
	C279.463531,421.749756 264.758667,431.639557 250.385986,441.950439 
	C246.592529,444.671844 242.775909,447.360962 238.012619,450.745026 
	C231.474976,399.191223 225.031387,348.379242 218.594009,297.616058 
	C260.692535,293.311981 302.019897,289.086731 343.436157,284.852417 
	C352.839844,333.407227 362.174377,381.604950 371.612915,430.339783 
	C352.362549,423.094391 333.562317,416.018402 314.414856,408.748840 
z"/>
<path fill="#C8CC00" opacity="1.000000" stroke="none" 
	d="
M1365.635498,554.676636 
	C1360.331177,556.456360 1355.372314,558.022949 1349.605225,559.844849 
	C1358.706787,508.959930 1367.739014,458.463287 1376.783936,407.895081 
	C1418.246826,416.333282 1458.801514,424.586609 1499.683960,432.906677 
	C1494.204468,482.129791 1488.778442,530.873169 1483.263428,580.415527 
	C1469.003052,569.036194 1455.477905,558.235046 1441.942383,547.447205 
	C1437.084473,543.575500 1432.304810,539.589905 1427.247925,535.995972 
	C1426.149902,535.215576 1423.881958,535.474548 1422.381104,535.960327 
	C1403.556641,542.052612 1384.774048,548.274719 1365.635498,554.676636 
z"/>
<path fill="#FF4D52" opacity="1.000000" stroke="none" 
	d="
M99.556908,461.713989 
	C98.487846,454.168854 97.724792,446.507812 96.904984,438.425018 
	C95.912712,423.879364 94.957077,409.756744 94.050850,395.630981 
	C93.649162,389.369812 93.344688,383.102448 93.000763,376.837616 
	C91.996033,358.535919 91.035194,340.231628 89.960304,321.934052 
	C89.701271,317.524597 89.067513,313.137207 88.571045,308.405670 
	C96.403366,307.910614 103.597618,307.306519 110.804443,307.029114 
	C130.329697,306.277588 149.860870,305.680573 169.388504,304.989380 
	C177.488434,304.702667 185.588531,304.393585 193.682755,303.980957 
	C200.252289,303.646088 206.813141,303.141388 213.911804,302.677094 
	C220.446548,351.716461 226.907028,400.198547 233.539856,449.973999 
	C210.328415,439.374634 188.462646,429.389771 166.635452,419.422546 
	C144.428787,433.448944 122.145851,447.523499 99.556908,461.713989 
z"/>
<path fill="#FFDB7C" opacity="1.000000" stroke="none" 
	d="
M553.002258,248.840515 
	C542.793152,233.307541 532.584045,217.774582 522.229614,202.020493 
	C495.849091,202.020493 469.214996,202.020493 441.865265,202.020493 
	C466.196503,156.432663 490.307281,111.257874 514.563782,65.810043 
	C537.907654,79.170204 561.134583,92.512642 584.412903,105.764763 
	C595.641541,112.157097 606.783936,118.746605 618.335388,124.504570 
	C623.207031,126.932930 623.413940,129.092758 621.288513,133.385269 
	C617.780823,140.469666 614.778687,147.803024 611.505493,155.005142 
	C600.027283,180.261292 588.524231,205.506210 577.030701,230.755432 
	C574.696167,235.884018 572.361755,241.012695 569.729614,246.698135 
	C567.176392,251.805878 564.920837,256.356781 562.426758,261.388855 
	C559.070557,256.920197 556.036438,252.880341 553.002258,248.840515 
z"/>
<path fill="#FF4D52" opacity="1.000000" stroke="none" 
	d="
M1076.273926,480.385315 
	C1075.510132,483.396545 1074.945801,486.044769 1074.135864,489.845367 
	C1066.616211,481.827972 1059.804077,474.687958 1053.139404,467.412689 
	C1049.146729,463.054260 1045.431885,458.442566 1041.505005,454.022095 
	C1037.884766,449.946594 1033.616089,446.335480 1030.587402,441.872223 
	C1026.036499,435.165985 1020.109375,435.978027 1013.604797,437.127075 
	C999.962830,439.536957 986.276428,441.694611 972.617981,444.013092 
	C965.552246,445.212463 958.517090,446.593140 951.446106,447.758392 
	C949.722473,448.042419 947.912109,447.800659 945.623230,447.800659 
	C949.875916,435.183594 953.871399,423.020264 958.077393,410.930176 
	C963.247803,396.068237 968.629578,381.280029 973.855225,366.437134 
	C980.911743,346.393982 988.043152,326.374878 994.791443,306.227814 
	C995.895203,302.932709 996.957886,302.981567 999.559937,303.971069 
	C1018.833313,311.299835 1038.137817,318.546631 1057.436157,325.809845 
	C1074.448608,332.212708 1091.442017,338.667511 1108.500488,344.945496 
	C1111.917480,346.203033 1113.468872,347.181732 1112.167847,351.562103 
	C1106.486816,370.688538 1101.332153,389.971832 1096.037476,409.212250 
	C1091.003906,427.504333 1086.048950,445.818024 1081.026733,464.113220 
	C1079.566650,469.432068 1077.994141,474.720093 1076.273926,480.385315 
z"/>
<path fill="#C8CC00" opacity="1.000000" stroke="none" 
	d="
M1259.298340,71.716286 
	C1270.119507,91.254387 1280.704590,110.495941 1291.313354,129.724335 
	C1296.173828,138.533844 1301.081177,147.317444 1306.252075,156.625336 
	C1297.921387,156.255707 1290.010620,155.917313 1282.102173,155.534576 
	C1281.301025,155.495804 1280.518677,155.064743 1279.717651,155.026489 
	C1265.198975,154.333084 1250.681641,153.583328 1236.155151,153.123474 
	C1234.460815,153.069855 1232.110352,154.198944 1231.085571,155.552933 
	C1220.361694,169.722290 1209.836792,184.042389 1199.278198,198.336517 
	C1194.740356,204.479797 1190.252563,210.660049 1185.447876,217.225525 
	C1163.459839,170.512589 1141.667114,124.214645 1119.768433,77.691681 
	C1158.117188,60.713215 1196.212280,43.847034 1234.432739,26.925398 
	C1242.688354,41.831802 1250.880249,56.623077 1259.298340,71.716286 
z"/>
<path fill="#C8CC00" opacity="1.000000" stroke="none" 
	d="
M959.022400,286.874481 
	C968.315613,291.086792 977.608887,295.299103 987.316528,299.699280 
	C971.535278,346.228241 955.788391,392.655823 939.709106,440.063599 
	C933.017822,431.805237 927.022034,424.369781 920.987061,416.966217 
	C914.260376,408.714081 907.499573,400.489655 900.746399,392.259125 
	C900.430908,391.874573 899.906372,391.611633 899.710999,391.185791 
	C895.251343,381.462524 887.481506,383.268311 879.268433,384.726013 
	C871.533813,386.098724 863.579712,386.196106 855.740234,387.025269 
	C844.185059,388.247498 832.650146,389.661316 821.096191,390.895660 
	C818.843750,391.136322 816.543518,390.930267 813.863770,390.930267 
	C819.717285,376.680420 825.322021,362.889709 831.043457,349.147614 
	C837.212280,334.330963 843.490356,319.559814 850.032837,304.132629 
	C857.815491,285.638916 865.286011,267.781433 872.825500,249.759125 
	C881.615234,253.301819 889.867126,256.627747 898.119019,259.953644 
	C901.114197,261.293884 904.109436,262.634094 907.634766,264.307861 
	C908.978271,265.173340 909.738525,265.822632 910.613342,266.219055 
	C919.748962,270.359314 928.852539,274.576569 938.068481,278.531342 
	C944.974731,281.494995 952.032227,284.106293 959.022400,286.874481 
z"/>
<path fill="#1FB3A5" opacity="1.000000" stroke="none" 
	d="
M578.994934,245.181564 
	C584.646484,233.773361 590.376831,222.403259 595.920227,210.942764 
	C599.261475,204.035065 602.244446,196.955048 605.506775,190.008026 
	C613.558838,172.861557 621.820374,155.811478 629.673340,138.574844 
	C631.650391,134.235184 633.162476,133.487900 637.661499,135.792984 
	C672.945923,153.871109 708.397461,171.623093 744.210327,189.683823 
	C741.140686,197.904282 738.087769,206.079956 734.919800,214.958252 
	C734.132141,216.471680 733.195007,217.177505 732.825378,218.108597 
	C722.144531,245.011475 711.493896,271.926392 700.905518,298.865784 
	C698.150879,305.874390 695.618896,312.970520 693.005981,320.019165 
	C693.027283,320.011841 693.010864,319.969849 692.754639,320.143921 
	C692.056458,321.213104 691.614380,322.108246 691.111084,323.317322 
	C690.689941,324.388367 690.330017,325.145447 689.633667,325.851135 
	C678.041443,310.615540 666.589355,295.571411 655.615784,280.185944 
	C650.396973,272.868805 645.966370,265.154480 634.927429,268.972137 
	C634.193909,269.225830 633.268616,268.858429 632.449463,268.943359 
	C629.530396,269.246033 626.618591,269.619293 623.704041,269.965820 
	C621.741882,269.987396 619.779785,270.009003 616.943237,270.029541 
	C599.794617,270.884644 583.520447,271.740784 566.790161,272.620941 
	C568.573669,268.850830 569.971558,266.065521 571.222717,263.215820 
	C573.854248,257.222321 576.408813,251.195007 578.994934,245.181564 
z"/>
<path fill="#FF7900" opacity="1.000000" stroke="none" 
	d="
M689.970154,325.902527 
	C690.330017,325.145447 690.689941,324.388367 691.431396,323.224213 
	C692.212280,321.868011 692.611572,320.918915 693.010864,319.969849 
	C693.010864,319.969849 693.027283,320.011841 693.322693,319.872131 
	C694.087463,319.054352 694.665955,318.427338 695.010376,317.690887 
	C706.823425,292.429108 718.654541,267.175629 730.383789,241.874924 
	C733.869141,234.356750 737.059204,226.701706 740.384521,219.109360 
	C744.976746,209.362976 749.568970,199.616592 754.246399,189.689362 
	C763.549500,194.284058 772.387024,198.648773 781.763184,203.383606 
	C784.164978,204.822220 785.980408,205.986542 787.898743,206.944656 
	C812.279175,219.121292 836.643677,231.330963 861.099976,243.353790 
	C864.674438,245.111023 865.586670,246.904938 864.032593,250.667114 
	C860.102600,260.180969 856.464539,269.817383 852.817749,279.445679 
	C848.828735,289.977692 844.961365,300.555786 841.041016,311.113831 
	C831.704956,335.030457 822.368958,358.947113 812.675842,383.778412 
	C800.366638,367.149292 788.569031,351.211395 776.290283,334.839050 
	C772.937256,327.440491 768.375977,323.524872 760.233154,324.881226 
	C755.527649,325.665039 750.692505,325.702728 745.910339,325.986328 
	C735.001099,326.633362 724.088196,327.219757 713.177429,327.841156 
	C706.739868,328.207733 700.302490,328.579651 693.866943,328.979279 
	C691.610596,329.119385 689.862915,328.710602 689.970154,325.902527 
z"/>
<path fill="#1FB3A5" opacity="1.000000" stroke="none" 
	d="
M959.145996,286.563965 
	C952.032227,284.106293 944.974731,281.494995 938.068481,278.531342 
	C928.852539,274.576569 919.748962,270.359314 910.613342,266.219055 
	C909.738525,265.822632 908.978271,265.173340 907.998779,264.318451 
	C903.581238,253.455200 899.359802,242.902664 895.071655,232.377289 
	C887.699158,214.281326 880.285095,196.202316 872.749268,177.775772 
	C882.766357,173.885254 892.563110,170.063477 902.372437,166.273987 
	C924.095398,157.882050 945.824951,149.507095 967.551147,141.123550 
	C973.933716,138.660706 980.419189,136.426727 986.654114,133.633835 
	C990.106201,132.087494 990.741516,134.369217 991.727173,136.375397 
	C999.373413,151.938583 1006.954529,167.533737 1014.578918,183.107681 
	C1024.787598,203.960312 1035.016968,224.802734 1045.536621,245.825684 
	C1048.873901,252.460602 1051.911865,258.919403 1054.916748,265.747009 
	C1045.131470,265.078156 1035.374390,264.084503 1025.628418,262.991211 
	C1014.427002,261.734650 1003.194702,260.662781 992.052490,258.997498 
	C983.036377,257.650024 981.946045,257.802979 974.813293,266.715057 
	C969.613037,273.212646 964.449585,279.739624 959.145996,286.563965 
z"/>
<path fill="#FF7900" opacity="1.000000" stroke="none" 
	d="
M578.602173,245.117371 
	C576.408813,251.195007 573.854248,257.222321 571.222717,263.215820 
	C569.971558,266.065521 568.573669,268.850830 566.790161,272.620941 
	C583.520447,271.740784 599.794617,270.884644 616.525757,270.094604 
	C622.321411,291.422852 627.631348,312.692261 633.008362,333.944672 
	C636.828491,349.043671 640.755432,364.115601 644.581909,379.212952 
	C644.934021,380.602020 644.903076,382.088165 645.115601,384.173676 
	C634.461365,380.675995 624.386963,377.336639 614.291443,374.062592 
	C602.109009,370.111725 589.945862,366.090607 577.669067,362.455444 
	C576.129822,361.999695 573.618958,363.288818 572.117737,364.476624 
	C555.421509,377.687256 538.830505,391.030945 522.225891,404.357208 
	C519.920349,406.207550 517.752686,408.235413 515.383606,409.995880 
	C514.909790,410.347961 513.809021,409.856476 512.935547,409.401093 
	C511.916870,404.646759 510.960022,400.245331 509.939545,395.430969 
	C508.426788,386.363586 507.039795,377.698090 505.514313,369.057068 
	C503.056091,355.132782 500.529266,341.220459 497.988708,327.310883 
	C495.829742,315.490570 493.606293,303.682007 491.419006,291.866852 
	C489.616302,282.128754 487.718201,272.405273 486.188141,262.624390 
	C486.029785,261.611969 487.937927,259.408569 489.147400,259.188660 
	C497.956665,257.586945 506.835388,256.369843 515.686707,254.996124 
	C525.977844,253.398956 536.263794,251.767548 546.551331,250.147263 
	C548.458740,249.846848 550.363281,249.528870 552.635742,249.029755 
	C556.036438,252.880341 559.070557,256.920197 562.426758,261.388855 
	C564.920837,256.356781 567.176392,251.805878 569.734741,247.068497 
	C572.761536,246.272415 575.485474,245.662796 578.602173,245.117371 
z"/>
<path fill="#C8CC00" opacity="1.000000" stroke="none" 
	d="
M689.633667,325.851135 
	C689.862915,328.710602 691.610596,329.119385 693.866943,328.979279 
	C700.302490,328.579651 706.739868,328.207733 713.177429,327.841156 
	C724.088196,327.219757 735.001099,326.633362 745.910339,325.986328 
	C750.692505,325.702728 755.527649,325.665039 760.233154,324.881226 
	C768.375977,323.524872 772.937256,327.440491 775.975586,334.714233 
	C777.900696,342.193176 779.659302,349.362488 781.483337,356.798706 
	C772.722839,354.368317 763.765625,351.922882 754.831543,349.395538 
	C741.587097,345.648895 728.395996,341.703430 715.085999,338.209106 
	C712.983032,337.657013 709.788452,338.297699 708.104126,339.644531 
	C701.813843,344.674438 695.940063,350.225555 689.913269,355.584778 
	C677.724976,366.423065 665.548340,377.274567 653.325012,388.073242 
	C652.671753,388.650299 651.631958,388.789764 650.775330,389.131622 
	C643.491089,357.922760 636.222351,327.018311 629.093994,296.081543 
	C627.162537,287.699036 625.655884,279.218658 623.829163,270.374512 
	C626.618591,269.619293 629.530396,269.246033 632.449463,268.943359 
	C633.268616,268.858429 634.193909,269.225830 634.927429,268.972137 
	C645.966370,265.154480 650.396973,272.868805 655.615784,280.185944 
	C666.589355,295.571411 678.041443,310.615540 689.633667,325.851135 
z"/>
<path fill="#FF4D52" opacity="1.000000" stroke="none" 
	d="
M841.348389,310.974548 
	C844.961365,300.555786 848.828735,289.977692 852.817749,279.445679 
	C856.464539,269.817383 860.102600,260.180969 864.032593,250.667114 
	C865.586670,246.904938 864.674438,245.111023 861.099976,243.353790 
	C836.643677,231.330963 812.279175,219.121292 787.898743,206.944656 
	C785.980408,205.986542 784.164978,204.822220 782.125061,203.463699 
	C798.416504,198.879395 814.886169,194.591263 831.352173,190.288849 
	C844.038879,186.973938 856.720947,183.641113 869.486145,180.294952 
	C878.921997,205.973785 888.424133,231.826828 897.905396,257.687531 
	C898.070007,258.136353 897.982849,258.677460 898.066101,259.564575 
	C889.867126,256.627747 881.615234,253.301819 872.825500,249.759125 
	C865.286011,267.781433 857.815491,285.638916 850.131653,303.788147 
	C847.164124,306.331696 844.409973,308.583496 841.348389,310.974548 
z"/>
<path fill="#C7CA04" opacity="1.000000" stroke="none" 
	d="
M740.225830,218.705261 
	C737.059204,226.701706 733.869141,234.356750 730.383789,241.874924 
	C718.654541,267.175629 706.823425,292.429108 695.010376,317.690887 
	C694.665955,318.427338 694.087463,319.054352 693.301392,319.879425 
	C695.618896,312.970520 698.150879,305.874390 700.905518,298.865784 
	C711.493896,271.926392 722.144531,245.011475 732.825378,218.108597 
	C733.195007,217.177505 734.132141,216.471680 734.993347,215.342285 
	C737.499207,215.089325 740.619995,213.957291 740.225830,218.705261 
z"/>
<path fill="transparent" opacity="1.000000" stroke="none" 
	d="
M337.488129,104.842339 
	C337.900787,103.060791 338.637604,101.125839 339.709534,99.069016 
	C339.300507,100.861069 338.556396,102.775009 337.488129,104.842339 
z"/>
<path fill="#C7CA04" opacity="1.000000" stroke="none" 
	d="
M692.754639,320.143921 
	C692.611572,320.918915 692.212280,321.868011 691.492676,322.910217 
	C691.614380,322.108246 692.056458,321.213104 692.754639,320.143921 
z"/>
</svg>