<svg version="1.1" id="Layer_1" xmlns="http://www.w3.org/2000/svg" xmlns:xlink="http://www.w3.org/1999/xlink" x="0px" y="0px"
	 width="100%" viewBox="0 0 275 311" enable-background="new 0 0 275 311" xml:space="preserve">
<path fill="transparent" opacity="1.000000" stroke="none" 
	d="
M179.000000,312.000000 
	C119.333344,312.000000 60.166687,312.000000 1.000024,312.000000 
	C1.000016,208.333359 1.000016,104.666725 1.000008,1.000066 
	C92.666626,1.000044 184.333252,1.000044 275.999908,1.000022 
	C275.999939,104.666603 275.999939,208.333206 275.999969,311.999908 
	C243.833328,312.000000 211.666672,312.000000 179.000000,312.000000 
M207.197403,233.152924 
	C205.411102,233.388779 203.624802,233.624619 201.903046,233.154938 
	C202.680420,231.897659 203.288269,230.488098 204.260513,229.405884 
	C219.470169,212.475693 222.047897,192.499161 218.484497,171.004745 
	C216.422134,158.564545 213.835373,146.176437 212.521973,133.656052 
	C210.990311,119.055222 213.229340,104.923210 222.732742,91.279572 
	C207.217850,97.142967 197.246323,107.124954 189.952759,120.630791 
	C189.316589,119.411011 189.072754,119.143738 189.040283,118.852852 
	C185.356918,85.876411 175.959274,54.498772 162.498383,24.272743 
	C161.854919,22.827873 160.424973,21.733252 159.361298,20.475523 
	C158.880707,20.708437 158.400116,20.941351 157.919525,21.174265 
	C158.731308,41.152611 154.824585,60.018433 145.161697,78.457245 
	C137.954773,65.423378 131.144058,53.106068 124.552437,41.185005 
	C123.794655,48.897682 123.806343,56.653233 122.144867,64.032043 
	C118.798218,78.894890 110.080841,91.238831 101.897591,103.788300 
	C93.446106,116.749100 85.041252,129.787109 83.533714,145.817612 
	C83.459015,146.612030 82.921921,147.362961 82.448074,148.498550 
	C74.747665,124.138763 63.846645,109.107391 52.110905,105.787483 
	C52.746197,111.472885 54.401089,117.444824 53.856365,123.208878 
	C52.643044,136.047714 51.099888,148.953979 48.302052,161.523590 
	C42.796246,186.259064 47.802883,207.960495 64.716721,226.821854 
	C69.362122,232.002136 74.306358,236.914444 78.548065,242.602982 
	C61.339630,244.240143 44.131199,245.877304 26.191877,247.427032 
	C21.637032,247.262238 19.351154,250.158768 17.629992,253.794632 
	C13.586744,262.335785 16.175201,277.906738 22.849766,284.655609 
	C25.733978,287.571960 29.013399,289.222137 33.763878,286.825775 
	C34.233696,286.767242 34.703518,286.708740 35.540390,286.778412 
	C35.540390,286.778412 35.849354,286.542389 36.635727,286.557617 
	C37.142746,286.437958 37.649765,286.318298 38.388870,286.392700 
	C38.628174,286.403381 38.778198,286.292755 39.700603,285.978973 
	C41.003799,285.780884 42.309914,285.600220 43.609745,285.382080 
	C60.037960,282.624817 76.465271,279.862152 92.955780,277.974701 
	C92.237801,286.845398 96.370537,293.487183 102.807236,298.953705 
	C105.684990,301.397736 108.876228,302.135223 112.653587,298.915527 
	C125.034912,288.889191 137.066467,278.380676 149.944809,269.039581 
	C156.402832,264.355347 164.442764,262.848663 172.361298,267.182800 
	C192.557877,278.237305 212.786331,289.233612 233.477066,300.790466 
	C237.194199,303.219513 240.556107,301.989960 243.409531,299.387360 
	C248.207535,295.011169 251.264114,289.596405 251.814026,282.988678 
	C252.265198,277.567169 250.655960,275.380219 244.731186,273.155151 
	C234.818771,268.772247 224.884674,264.436981 215.020462,259.948151 
	C213.740585,259.365723 212.821320,257.990845 212.461655,256.620087 
	C216.159836,255.824860 219.830032,254.567169 223.562637,254.341431 
	C229.350296,253.991409 231.700821,250.735153 232.834747,244.826553 
	C233.049866,239.479828 232.650711,234.321060 228.116379,229.713470 
	C225.471527,228.935425 222.569305,227.066330 220.237701,227.616302 
	C215.955200,228.626434 212.008835,231.061600 207.197403,233.152924 
z"/>
<path fill="#F58820" opacity="1.000000" stroke="none" 
	d="
M79.113480,241.949707 
	C74.306358,236.914444 69.362122,232.002136 64.716721,226.821854 
	C47.802883,207.960495 42.796246,186.259064 48.302052,161.523590 
	C51.099888,148.953979 52.643044,136.047714 53.856365,123.208878 
	C54.401089,117.444824 52.746197,111.472885 52.110905,105.787483 
	C63.846645,109.107391 74.747665,124.138763 82.448074,148.498550 
	C82.921921,147.362961 83.459015,146.612030 83.533714,145.817612 
	C85.041252,129.787109 93.446106,116.749100 101.897591,103.788300 
	C110.080841,91.238831 118.798218,78.894890 122.144867,64.032043 
	C123.806343,56.653233 123.794655,48.897682 124.552437,41.185005 
	C131.144058,53.106068 137.954773,65.423378 145.161697,78.457245 
	C154.824585,60.018433 158.731308,41.152611 157.919525,21.174265 
	C158.400116,20.941351 158.880707,20.708437 159.361298,20.475523 
	C160.424973,21.733252 161.854919,22.827873 162.498383,24.272743 
	C175.959274,54.498772 185.356918,85.876411 189.040283,118.852852 
	C189.072754,119.143738 189.316589,119.411011 189.952759,120.630791 
	C197.246323,107.124954 207.217850,97.142967 222.732742,91.279572 
	C213.229340,104.923210 210.990311,119.055222 212.521973,133.656052 
	C213.835373,146.176437 216.422134,158.564545 218.484497,171.004745 
	C222.047897,192.499161 219.470169,212.475693 204.260513,229.405884 
	C203.288269,230.488098 202.680420,231.897659 201.531036,233.568665 
	C195.442566,237.609619 189.726089,241.236832 183.620697,244.893738 
	C181.473557,245.302048 179.715302,245.680679 177.931091,245.639404 
	C178.233902,242.503799 178.562637,239.788101 178.958282,236.655380 
	C179.416061,232.780777 179.806946,229.323227 180.197830,225.865662 
	C172.224411,236.839096 161.808136,243.952255 150.652832,250.298950 
	C140.142746,256.278534 129.844833,262.613525 123.593941,273.656494 
	C120.694839,271.232666 118.060196,269.029968 115.364685,266.545288 
	C114.488136,265.218109 113.672462,264.172882 112.839767,262.833984 
	C112.505913,262.047607 112.189087,261.554932 111.764534,260.741486 
	C108.424088,255.525009 105.191368,250.629318 101.996170,245.345993 
	C100.014572,237.936218 97.995445,230.914093 95.976318,223.891953 
	C90.875793,231.357895 89.219521,239.009216 92.056427,247.626389 
	C92.471428,249.467438 92.877342,250.974152 93.332764,252.664658 
	C90.384010,250.896851 87.683159,249.277664 84.931091,247.320221 
	C82.957748,245.304550 81.035614,243.627136 79.113480,241.949707 
M129.003693,212.000839 
	C129.003693,212.000839 129.047348,212.039490 129.040115,212.796844 
	C126.849434,220.568817 124.247437,228.253738 122.579491,236.136322 
	C120.778961,244.645462 122.449295,253.023026 125.262749,262.046753 
	C130.542267,250.148666 140.319565,244.410141 150.215225,238.937531 
	C160.969971,232.989822 170.792480,226.089951 177.177170,215.235092 
	C183.829269,203.925644 186.061905,191.758469 184.526215,177.402161 
	C178.828674,186.906342 173.845810,195.218369 169.055710,203.208847 
	C169.650482,194.328903 170.984634,185.316208 170.649536,176.366013 
	C170.309814,167.292099 168.303802,158.285553 162.515411,149.803711 
	C161.829773,152.141068 161.420517,153.568176 160.992676,154.989700 
	C157.453003,166.750748 151.829727,177.302231 143.000763,186.000351 
	C143.000763,186.000351 143.017944,186.013962 142.964706,185.154663 
	C147.584106,162.709946 139.838699,143.148819 128.753448,123.879280 
	C117.840019,134.328476 107.599655,144.941330 99.778854,157.608444 
	C91.791756,170.544937 87.286415,184.489807 88.277893,200.035934 
	C82.489670,190.492661 76.701447,180.949402 70.684158,171.028458 
	C62.373898,191.866928 70.499954,221.108734 81.726791,231.480576 
	C84.692024,219.733658 89.103607,208.873489 99.096642,199.634827 
	C98.161514,215.597763 102.505402,228.580612 112.977608,240.305176 
	C116.036346,228.874451 120.094002,219.003708 129.003693,212.000839 
z"/>
<path fill="#733D1C" opacity="1.000000" stroke="none" 
	d="
M178.891388,237.072418 
	C178.562637,239.788101 178.233902,242.503799 177.752701,245.908752 
	C175.343216,248.393936 173.086182,250.189865 170.569977,252.181442 
	C168.268250,254.171997 166.225723,255.966904 163.520432,258.344208 
	C186.703079,270.441193 209.317444,282.241638 231.959991,294.440094 
	C232.326111,296.643158 232.664062,298.448151 233.002029,300.253174 
	C212.786331,289.233612 192.557877,278.237305 172.361298,267.182800 
	C164.442764,262.848663 156.402832,264.355347 149.944809,269.039581 
	C137.066467,278.380676 125.034912,288.889191 112.355057,298.600159 
	C111.936188,294.861664 111.815842,291.438477 112.041351,287.903412 
	C128.977966,274.982117 145.544220,262.140839 162.173386,249.381500 
	C167.662582,245.169693 173.314102,241.169418 178.891388,237.072418 
z"/>
<path fill="#F8C070" opacity="1.000000" stroke="none" 
	d="
M170.829163,251.985779 
	C173.086182,250.189865 175.343216,248.393936 177.778641,246.328659 
	C179.715302,245.680679 181.473557,245.302048 183.947479,245.049316 
	C188.134598,246.736465 191.606049,248.297729 195.380981,250.041840 
	C201.034637,252.477478 206.384827,254.730255 211.735016,256.983032 
	C212.821320,257.990845 213.740585,259.365723 215.020462,259.948151 
	C224.884674,264.436981 234.818771,268.772247 244.769836,273.762695 
	C241.241501,277.532715 237.674515,280.695190 233.871231,283.600281 
	C214.050797,273.951996 194.455917,264.583374 174.903564,255.126801 
	C173.392487,254.395966 172.180267,253.047287 170.829163,251.985779 
z"/>
<path fill="#713B19" opacity="1.000000" stroke="none" 
	d="
M111.872253,261.062256 
	C112.189087,261.554932 112.505913,262.047607 112.543144,262.970947 
	C107.173828,266.897552 102.084114,270.393494 96.690788,274.016113 
	C95.222389,275.128845 94.057602,276.114868 92.892822,277.100891 
	C76.465271,279.862152 60.037960,282.624817 43.609745,285.382080 
	C42.309914,285.600220 41.003799,285.780884 39.150486,285.967834 
	C38.403309,285.946960 38.255447,286.027618 38.156784,286.198669 
	C37.649765,286.318298 37.142746,286.437958 36.186432,286.420959 
	C35.737141,286.284332 35.336857,286.303589 35.336857,286.303589 
	C35.336857,286.303589 35.173336,286.650208 35.173336,286.650208 
	C34.703518,286.708740 34.233696,286.767242 33.632195,286.523468 
	C34.741871,283.810272 36.288376,281.502075 37.143742,278.961243 
	C38.111092,276.087738 38.457970,273.005341 39.528957,270.020508 
	C53.372406,268.493439 66.772865,267.051025 80.147133,265.396790 
	C90.738838,264.086700 101.298409,262.516785 111.872253,261.062256 
z"/>
<path fill="#C5762B" opacity="1.000000" stroke="none" 
	d="
M39.074669,270.013794 
	C38.457970,273.005341 38.111092,276.087738 37.143742,278.961243 
	C36.288376,281.502075 34.741871,283.810272 33.279167,286.465698 
	C29.013399,289.222137 25.733978,287.571960 22.849766,284.655609 
	C16.175201,277.906738 13.586744,262.335785 17.629992,253.794632 
	C19.351154,250.158768 21.637032,247.262238 26.804468,247.657562 
	C29.913486,249.893692 32.409916,251.899292 34.926132,254.302734 
	C36.322166,259.804993 37.698418,264.909393 39.074669,270.013794 
z"/>
<path fill="#995025" opacity="1.000000" stroke="none" 
	d="
M195.077499,249.859009 
	C191.606049,248.297729 188.134598,246.736465 184.336365,245.019623 
	C189.726089,241.236832 195.442566,237.609619 201.498779,233.921448 
	C203.624802,233.624619 205.411102,233.388779 207.994370,233.077148 
	C215.328278,232.114273 221.865234,231.227203 228.402176,230.340118 
	C232.650711,234.321060 233.049866,239.479828 232.417206,244.882111 
	C219.692291,246.578094 207.384888,248.218552 195.077499,249.859009 
z"/>
<path fill="#C6772B" opacity="1.000000" stroke="none" 
	d="
M234.107529,283.857697 
	C237.674515,280.695190 241.241501,277.532715 244.965118,274.044556 
	C250.655960,275.380219 252.265198,277.567169 251.814026,282.988678 
	C251.264114,289.596405 248.207535,295.011169 243.409531,299.387360 
	C240.556107,301.989960 237.194199,303.219513 233.239548,300.521820 
	C232.664062,298.448151 232.326111,296.643158 231.986908,294.030090 
	C232.692947,290.100586 233.400238,286.979156 234.107529,283.857697 
z"/>
<path fill="#F8C173" opacity="1.000000" stroke="none" 
	d="
M34.906342,253.904877 
	C32.409916,251.899292 29.913486,249.893692 27.169910,247.701279 
	C44.131199,245.877304 61.339630,244.240143 78.830772,242.276337 
	C81.035614,243.627136 82.957748,245.304550 84.492531,247.407898 
	C80.824074,248.219376 77.540672,248.586411 74.262291,248.993790 
	C61.142796,250.624008 48.024857,252.266754 34.906342,253.904877 
z"/>
<path fill="#C6772C" opacity="1.000000" stroke="none" 
	d="
M92.924301,277.537811 
	C94.057602,276.114868 95.222389,275.128845 96.878311,274.277924 
	C98.892639,275.155548 100.415848,275.898041 102.102806,276.950287 
	C105.409538,280.845123 108.552521,284.430206 111.695496,288.015320 
	C111.815842,291.438477 111.936188,294.861664 112.050392,298.759216 
	C108.876228,302.135223 105.684990,301.397736 102.807236,298.953705 
	C96.370537,293.487183 92.237801,286.845398 92.924301,277.537811 
z"/>
<path fill="#723B1A" opacity="1.000000" stroke="none" 
	d="
M195.380981,250.041855 
	C207.384888,248.218552 219.692291,246.578094 232.255524,245.269745 
	C231.700821,250.735153 229.350296,253.991409 223.562637,254.341431 
	C219.830032,254.567169 216.159836,255.824860 212.098328,256.801575 
	C206.384827,254.730255 201.034637,252.477478 195.380981,250.041855 
z"/>
<path fill="#F7C176" opacity="1.000000" stroke="none" 
	d="
M228.259277,230.026794 
	C221.865234,231.227203 215.328278,232.114273 208.356842,232.952057 
	C212.008835,231.061600 215.955200,228.626434 220.237701,227.616302 
	C222.569305,227.066330 225.471527,228.935425 228.259277,230.026794 
z"/>
<path fill="#C5762B" opacity="1.000000" stroke="none" 
	d="
M35.356865,286.714294 
	C35.173336,286.650208 35.336857,286.303589 35.336857,286.303589 
	C35.336857,286.303589 35.737141,286.284332 35.793247,286.413361 
	C35.849354,286.542389 35.540390,286.778412 35.356865,286.714294 
z"/>
<path fill="#C5762B" opacity="1.000000" stroke="none" 
	d="
M38.272827,286.295685 
	C38.255447,286.027618 38.403309,285.946960 38.719654,286.008789 
	C38.778198,286.292755 38.628174,286.403381 38.272827,286.295685 
z"/>
<path fill="#FED82B" opacity="1.000000" stroke="none" 
	d="
M142.987610,185.983337 
	C151.829727,177.302231 157.453003,166.750748 160.992676,154.989700 
	C161.420517,153.568176 161.829773,152.141068 162.515411,149.803711 
	C168.303802,158.285553 170.309814,167.292099 170.649536,176.366013 
	C170.984634,185.316208 169.650482,194.328903 169.055710,203.208847 
	C173.845810,195.218369 178.828674,186.906342 184.526215,177.402161 
	C186.061905,191.758469 183.829269,203.925644 177.177170,215.235092 
	C170.792480,226.089951 160.969971,232.989822 150.215225,238.937531 
	C140.319565,244.410141 130.542267,250.148666 125.262749,262.046753 
	C122.449295,253.023026 120.778961,244.645462 122.579491,236.136322 
	C124.247437,228.253738 126.849434,220.568817 129.205841,212.357910 
	C129.235931,211.931839 129.100296,211.944672 128.964661,211.957520 
	C120.094002,219.003708 116.036346,228.874451 112.977608,240.305176 
	C102.505402,228.580612 98.161514,215.597763 99.096642,199.634827 
	C89.103607,208.873489 84.692024,219.733658 81.726791,231.480576 
	C70.499954,221.108734 62.373898,191.866928 70.684158,171.028458 
	C76.701447,180.949402 82.489670,190.492661 88.277893,200.035934 
	C87.286415,184.489807 91.791756,170.544937 99.778854,157.608444 
	C107.599655,144.941330 117.840019,134.328476 128.753448,123.879280 
	C139.838699,143.148819 147.584106,162.709946 142.851822,185.624817 
	C142.821823,186.057755 142.904724,186.020554 142.987610,185.983337 
z"/>
<path fill="#994F23" opacity="1.000000" stroke="none" 
	d="
M34.926132,254.302734 
	C48.024857,252.266754 61.142796,250.624008 74.262291,248.993790 
	C77.540672,248.586411 80.824074,248.219376 84.543732,247.746155 
	C87.683159,249.277664 90.384010,250.896851 93.332764,252.664658 
	C92.877342,250.974152 92.471428,249.467438 92.474426,247.578857 
	C95.908440,246.709213 98.933540,246.221420 101.958649,245.733627 
	C105.191368,250.629318 108.424088,255.525009 111.764534,260.741486 
	C101.298409,262.516785 90.738838,264.086700 80.147133,265.396790 
	C66.772865,267.051025 53.372406,268.493439 39.528957,270.020508 
	C37.698418,264.909393 36.322166,259.804993 34.926132,254.302734 
z"/>
<path fill="#9A5024" opacity="1.000000" stroke="none" 
	d="
M112.041351,287.903412 
	C108.552521,284.430206 105.409538,280.845123 102.316147,276.707336 
	C106.719002,273.045502 111.072281,269.936371 115.425552,266.827271 
	C118.060196,269.029968 120.694839,271.232666 123.593941,273.656494 
	C129.844833,262.613525 140.142746,256.278534 150.652832,250.298950 
	C161.808136,243.952255 172.224411,236.839096 180.197830,225.865662 
	C179.806946,229.323227 179.416061,232.780777 178.958282,236.655396 
	C173.314102,241.169418 167.662582,245.169693 162.173386,249.381500 
	C145.544220,262.140839 128.977966,274.982117 112.041351,287.903412 
z"/>
<path fill="#FEF9F3" opacity="1.000000" stroke="none" 
	d="
M101.996170,245.345993 
	C98.933540,246.221420 95.908440,246.709213 92.465332,247.244537 
	C89.219521,239.009216 90.875793,231.357895 95.976318,223.891953 
	C97.995445,230.914093 100.014572,237.936218 101.996170,245.345993 
z"/>
<path fill="#F9F1E8" opacity="1.000000" stroke="none" 
	d="
M115.364685,266.545288 
	C111.072281,269.936371 106.719002,273.045502 102.152390,276.397583 
	C100.415848,275.898041 98.892639,275.155548 97.181915,274.151245 
	C102.084114,270.393494 107.173828,266.897552 112.560165,263.264648 
	C113.672462,264.172882 114.488136,265.218109 115.364685,266.545288 
z"/>
<path fill="#994F24" opacity="1.000000" stroke="none" 
	d="
M233.871231,283.600281 
	C233.400238,286.979156 232.692947,290.100586 231.958740,293.632050 
	C209.317444,282.241638 186.703079,270.441193 163.520432,258.344208 
	C166.225723,255.966904 168.268250,254.171997 170.569977,252.181427 
	C172.180267,253.047287 173.392487,254.395966 174.903564,255.126801 
	C194.455917,264.583374 214.050797,273.951996 233.871231,283.600281 
z"/>
<path fill="#F58820" opacity="1.000000" stroke="none" 
	d="
M128.984177,211.979172 
	C129.100296,211.944672 129.235931,211.931839 129.209457,211.979248 
	C129.047348,212.039490 129.003693,212.000839 128.984177,211.979172 
z"/>
<path fill="#F58820" opacity="1.000000" stroke="none" 
	d="
M142.994186,185.991852 
	C142.904724,186.020554 142.821823,186.057755 142.878448,186.054474 
	C143.017944,186.013962 143.000763,186.000351 142.994186,185.991852 
z"/>
</svg>