<svg version="1.1" id="Layer_1" xmlns="http://www.w3.org/2000/svg" xmlns:xlink="http://www.w3.org/1999/xlink" x="0px" y="0px"
	 width="100%" viewBox="0 0 174 174" enable-background="new 0 0 174 174" xml:space="preserve">
<path fill="transparent" opacity="1.000000" stroke="none" 
	d="
M114.000000,175.000000 
	C76.000000,175.000000 38.500004,175.000000 1.000005,175.000000 
	C1.000003,117.000008 1.000003,59.000011 1.000002,1.000013 
	C58.999989,1.000009 116.999977,1.000009 174.999969,1.000004 
	C174.999985,58.999989 174.999985,116.999977 175.000000,174.999985 
	C154.833328,175.000000 134.666672,175.000000 114.000000,175.000000 
M73.003426,43.362843 
	C72.671700,43.232098 72.339966,43.101353 71.615662,42.420429 
	C62.757397,37.116238 53.788982,31.972235 43.309109,30.711189 
	C35.910412,29.820904 32.583477,32.908131 32.954426,40.212372 
	C33.120171,43.475998 33.691357,46.849430 34.797970,49.913170 
	C40.827362,66.606041 50.842190,80.764435 62.585720,93.852005 
	C59.846668,95.424362 57.107616,96.996727 53.255726,99.207916 
	C69.809929,102.276016 81.571159,111.255585 92.918396,121.057228 
	C97.039146,124.616699 101.298798,128.189209 106.001709,130.865448 
	C116.461578,136.817780 128.950378,133.303207 135.880646,122.704285 
	C136.612885,119.857994 137.785690,117.044853 138.002823,114.159798 
	C139.070816,99.969009 131.945526,89.339401 122.152359,80.307159 
	C114.609489,73.350357 106.456108,67.054947 98.564919,60.476562 
	C93.777870,56.485909 88.973152,52.516438 84.176376,48.537449 
	C84.582718,48.120083 84.989067,47.702717 85.395409,47.285347 
	C84.966354,48.496906 84.537300,49.708466 83.405365,50.589664 
	C80.025063,48.323410 76.644753,46.057159 73.184135,43.792950 
	C73.184135,43.792950 73.217880,43.865856 73.003426,43.362843 
z"/>
<path fill="#03A755" opacity="1.000000" stroke="none" 
	d="
M84.108246,50.920029 
	C84.537300,49.708466 84.966354,48.496906 85.395409,47.285347 
	C84.989067,47.702717 84.582718,48.120083 84.176376,48.537449 
	C88.973152,52.516438 93.777870,56.485909 98.564919,60.476562 
	C106.456108,67.054947 114.609489,73.350357 122.152359,80.307159 
	C131.945526,89.339401 139.070816,99.969009 138.002823,114.159798 
	C137.785690,117.044853 136.612885,119.857994 135.362762,122.625687 
	C117.605728,116.506943 102.190498,107.911995 91.929230,91.630844 
	C84.486656,79.144104 83.097366,65.800987 84.046021,51.841648 
	C84.221069,51.419483 84.209290,51.167660 84.108246,50.920029 
z"/>
<path fill="#82C242" opacity="1.000000" stroke="none" 
	d="
M92.018646,91.972565 
	C102.190498,107.911995 117.605728,116.506943 135.076904,122.854645 
	C128.950378,133.303207 116.461578,136.817780 106.001709,130.865448 
	C101.298798,128.189209 97.039146,124.616699 92.918396,121.057228 
	C81.571159,111.255585 69.809929,102.276016 53.255726,99.207916 
	C57.107616,96.996727 59.846668,95.424362 63.247269,93.544510 
	C73.183723,90.702713 82.550400,90.208611 92.018646,91.972565 
z"/>
<path fill="#F8AA1E" opacity="1.000000" stroke="none" 
	d="
M91.929230,91.630844 
	C82.550400,90.208611 73.183723,90.702713 63.505352,93.336517 
	C50.842190,80.764435 40.827362,66.606041 34.797970,49.913170 
	C33.691357,46.849430 33.120171,43.475998 32.954426,40.212372 
	C32.583477,32.908131 35.910412,29.820904 43.309109,30.711189 
	C53.788982,31.972235 62.757397,37.116238 71.941071,42.928940 
	C72.583618,43.580250 72.900749,43.723053 73.217880,43.865856 
	C73.217880,43.865856 73.184135,43.792950 73.016579,44.062447 
	C71.224403,44.742672 69.599792,45.153400 67.084633,45.789265 
	C74.231354,47.502174 71.064651,52.709053 71.617783,56.712429 
	C71.633308,56.824772 71.867508,56.906902 71.853470,57.297653 
	C68.179588,61.915268 65.176094,57.298798 61.618919,56.846474 
	C60.986828,56.308460 60.625843,55.963970 60.325974,55.572647 
	C57.471043,51.847000 53.510174,50.837315 49.456036,52.814583 
	C45.768459,54.613068 43.759899,58.944473 45.142715,63.406796 
	C46.399715,67.463104 49.487144,69.764656 53.844826,68.929642 
	C56.318188,68.455696 58.600037,66.982300 61.170670,66.161240 
	C62.547058,64.992043 63.720909,63.620632 64.448898,62.770123 
	C65.508949,64.024811 66.786293,65.536697 67.845963,67.308807 
	C66.755745,68.043472 65.854576,68.472389 65.015556,69.000099 
	C61.088245,71.470200 59.082619,76.433395 60.321476,80.538437 
	C61.755028,85.288612 66.640846,89.102959 70.912552,88.806862 
	C75.625854,88.480164 79.640747,85.013565 80.760681,80.315979 
	C82.410576,73.395424 78.162407,69.947723 73.194496,66.909302 
	C76.127647,64.935745 78.866524,63.156666 81.476654,61.205376 
	C81.727264,61.018024 81.176712,59.758999 81.032272,58.697395 
	C83.239174,56.814175 79.648888,52.631626 83.948456,52.007797 
	C83.097366,65.800987 84.486656,79.144104 91.929230,91.630844 
M39.451973,37.085236 
	C36.808254,42.012173 37.663170,46.875515 41.478916,48.615868 
	C45.473377,50.437737 50.345798,48.556396 51.228642,44.061146 
	C51.671539,41.806000 50.503654,38.639042 48.994480,36.730267 
	C46.494507,33.568348 43.101521,34.807148 39.451973,37.085236 
z"/>
<path fill="#F8A620" opacity="1.000000" stroke="none" 
	d="
M71.999733,57.003120 
	C71.867508,56.906902 71.633308,56.824772 71.617783,56.712429 
	C71.064651,52.709053 74.231354,47.502174 67.084633,45.789265 
	C69.599792,45.153400 71.224403,44.742672 73.056732,44.061428 
	C76.644753,46.057159 80.025063,48.323410 83.756805,50.754845 
	C84.209290,51.167660 84.221069,51.419483 84.046021,51.841648 
	C79.648888,52.631626 83.239174,56.814175 80.757050,58.810478 
	C77.728233,58.116081 75.390862,55.555107 71.999733,57.003120 
M78.410507,52.482815 
	C78.410507,52.482815 78.522293,52.415737 78.410507,52.482815 
M74.482605,54.588238 
	C74.482605,54.588238 74.415665,54.476562 74.482605,54.588238 
M76.411278,54.482758 
	C76.411278,54.482758 76.523323,54.415718 76.411278,54.482758 
z"/>
<path fill="#F8A620" opacity="1.000000" stroke="none" 
	d="
M73.110657,43.614349 
	C72.900749,43.723053 72.583618,43.580250 72.137360,43.204025 
	C72.339966,43.101353 72.671700,43.232098 73.110657,43.614349 
z"/>
<path fill="#FED82B" opacity="1.000000" stroke="none" 
	d="
M72.964516,67.056023 
	C78.162407,69.947723 82.410576,73.395424 80.760681,80.315979 
	C79.640747,85.013565 75.625854,88.480164 70.912552,88.806862 
	C66.640846,89.102959 61.755028,85.288612 60.321476,80.538437 
	C59.082619,76.433395 61.088245,71.470200 65.015556,69.000099 
	C65.854576,68.472389 66.755745,68.043472 68.237984,67.299255 
	C69.898560,67.019943 70.949432,67.010429 72.240654,67.014404 
	C72.481003,67.027893 72.962395,67.034760 72.969757,67.031616 
	C72.977112,67.028473 72.964516,67.056023 72.964516,67.056023 
z"/>
<path fill="#FED72B" opacity="1.000000" stroke="none" 
	d="
M60.968132,65.959023 
	C58.600037,66.982300 56.318188,68.455696 53.844826,68.929642 
	C49.487144,69.764656 46.399715,67.463104 45.142715,63.406796 
	C43.759899,58.944473 45.768459,54.613068 49.456036,52.814583 
	C53.510174,50.837315 57.471043,51.847000 60.325974,55.572647 
	C60.625843,55.963970 60.986828,56.308460 61.642170,57.270996 
	C61.632637,60.564545 61.300385,63.261784 60.968132,65.959023 
z"/>
<path fill="#FED72A" opacity="1.000000" stroke="none" 
	d="
M39.759285,36.819088 
	C43.101521,34.807148 46.494507,33.568348 48.994480,36.730267 
	C50.503654,38.639042 51.671539,41.806000 51.228642,44.061146 
	C50.345798,48.556396 45.473377,50.437737 41.478916,48.615868 
	C37.663170,46.875515 36.808254,42.012173 39.759285,36.819088 
z"/>
<path fill="#F9A31C" opacity="1.000000" stroke="none" 
	d="
M61.170670,66.161240 
	C61.300385,63.261784 61.632637,60.564545 61.941635,57.442787 
	C65.176094,57.298798 68.179588,61.915268 71.853470,57.297653 
	C75.390862,55.555107 77.728233,58.116081 80.722855,59.110550 
	C81.176712,59.758999 81.727264,61.018024 81.476654,61.205376 
	C78.866524,63.156666 76.127647,64.935745 73.194496,66.909302 
	C72.964516,67.056023 72.977112,67.028473 72.966293,66.776474 
	C72.806839,66.249786 72.658211,65.975105 72.509575,65.700424 
	C72.339821,66.133919 72.170059,66.567421 72.000305,67.000916 
	C70.949432,67.010429 69.898560,67.019943 68.455658,67.039017 
	C66.786293,65.536697 65.508949,64.024811 64.448898,62.770123 
	C63.720909,63.620632 62.547058,64.992043 61.170670,66.161240 
z"/>
<path fill="#F9A31C" opacity="1.000000" stroke="none" 
	d="
M78.466400,52.449276 
	C78.522293,52.415737 78.410507,52.482815 78.466400,52.449276 
z"/>
<path fill="#F9A31C" opacity="1.000000" stroke="none" 
	d="
M74.449135,54.532402 
	C74.415665,54.476562 74.482605,54.588238 74.449135,54.532402 
z"/>
<path fill="#F9A31C" opacity="1.000000" stroke="none" 
	d="
M76.467300,54.449238 
	C76.523323,54.415718 76.411278,54.482758 76.467300,54.449238 
z"/>
<path fill="#F8AA1E" opacity="1.000000" stroke="none" 
	d="
M72.240654,67.014404 
	C72.170059,66.567421 72.339821,66.133919 72.509575,65.700424 
	C72.658211,65.975105 72.806839,66.249786 72.958939,66.779617 
	C72.962395,67.034760 72.481003,67.027893 72.240654,67.014404 
z"/>
</svg>