<svg version="1.1" id="Layer_1" xmlns="http://www.w3.org/2000/svg" xmlns:xlink="http://www.w3.org/1999/xlink" x="0px" y="0px"
	 width="100%" viewBox="0 0 976 273" enable-background="new 0 0 976 273" xml:space="preserve">
<path fill="transparent" opacity="1.000000" stroke="none" 
	d="
M637.000000,274.000000 
	C424.666656,274.000000 212.833328,274.000000 1.000000,274.000000 
	C1.000000,183.000000 1.000000,92.000000 1.000000,1.000000 
	C326.333344,1.000000 651.666687,1.000000 977.000000,1.000000 
	C977.000000,92.000000 977.000000,183.000000 977.000000,274.000000 
	C863.833313,274.000000 750.666687,274.000000 637.000000,274.000000 
M884.788513,212.788406 
	C884.788513,212.788406 885.107422,213.096954 885.082153,213.762878 
	C884.911438,214.228531 884.492981,215.028076 884.605774,215.111755 
	C889.286743,218.585922 892.620056,223.834641 899.040894,225.047836 
	C903.172363,225.828430 907.009521,228.079819 911.125671,229.045044 
	C923.063721,231.844513 929.970703,227.572998 932.855347,217.623398 
	C933.274719,216.176773 935.189636,215.163681 936.461975,213.900879 
	C935.644592,212.928391 934.602356,211.688446 934.009949,210.983688 
	C934.333496,209.034683 935.183655,207.343231 934.664978,206.425400 
	C932.744629,203.027573 935.807617,203.637955 936.921875,203.142075 
	C937.050049,203.199295 937.178162,203.256500 937.306335,203.313721 
	C937.231750,203.185776 937.157166,203.057846 936.917603,202.191971 
	C936.328247,200.021591 935.128662,197.811508 935.266785,195.688461 
	C935.643494,189.898804 936.584900,184.145905 937.325745,178.192307 
	C943.247925,176.564697 949.130371,174.947983 955.012878,173.331268 
	C954.943848,173.022522 954.874817,172.713760 954.805786,172.404999 
	C949.629822,170.801651 944.453796,169.198303 939.373840,167.624680 
	C941.563232,162.106522 934.373840,153.725433 945.242493,151.414230 
	C944.408569,150.381836 943.823303,149.610611 943.190125,148.880981 
	C938.814026,143.838013 938.808960,143.838623 943.790100,139.671310 
	C947.884399,136.245926 951.983582,132.826462 956.520630,129.036896 
	C950.478088,129.036896 945.338013,129.187134 940.216431,128.946396 
	C938.655762,128.873016 936.963196,127.974487 935.646667,127.018997 
	C931.684692,124.143684 927.855286,121.082993 924.023071,118.033150 
	C922.589661,116.892319 921.291199,115.581955 920.096802,114.499001 
	C913.215332,118.426598 905.127197,112.779671 897.115295,116.118553 
	C896.852478,116.556023 896.175415,118.064545 895.164246,119.299408 
	C891.050720,124.322510 886.910400,129.328857 882.601685,134.183167 
	C881.566650,135.349243 879.847351,135.907928 878.442749,136.745941 
	C878.178772,135.255768 877.655579,133.759201 877.692200,132.276443 
	C877.964600,121.232109 875.060730,111.600174 866.071350,104.384781 
	C864.063416,102.773048 862.506104,100.599739 860.328064,98.236618 
	C859.502563,98.372993 857.238159,99.300354 855.148987,99.001686 
	C842.329773,97.168983 829.549133,95.065094 816.759338,93.028442 
	C815.823486,92.879402 814.637634,92.837166 814.038696,92.258232 
	C806.943726,85.400162 797.419983,85.152679 788.805542,84.690720 
	C782.973572,84.377975 778.226196,83.493805 772.694397,81.479706 
	C762.546570,77.784973 751.695679,75.475006 740.403870,78.347305 
	C737.024780,79.206841 732.747620,77.479492 729.135010,76.214584 
	C725.450439,74.924477 722.061401,72.775177 718.573975,70.943008 
	C716.738342,69.978607 714.968872,68.888176 713.169556,67.854637 
	C713.293213,68.213547 713.416809,68.572456 713.540466,68.931366 
	C706.217285,69.803589 698.894165,70.675804 691.380859,71.570671 
	C690.959106,72.708023 690.601868,74.352768 689.796997,75.737297 
	C681.107666,90.683693 672.384521,105.610992 663.535461,120.463013 
	C662.848877,121.615417 661.115601,122.903732 659.916687,122.858536 
	C655.003479,122.673340 650.108826,121.995667 644.996826,121.477943 
	C646.038757,114.858276 646.992554,108.627800 648.004333,102.406754 
	C649.873535,90.914337 651.776672,79.427444 653.617920,68.228600 
	C651.742249,66.925392 649.406311,64.966240 646.773193,63.565681 
	C644.040710,62.112263 641.108337,60.792553 638.105774,60.145584 
	C633.565796,59.167347 628.887451,58.836746 624.271362,58.205639 
	C615.913635,57.062988 608.756531,61.737206 607.251709,69.992279 
	C603.428650,90.964973 599.278687,111.911400 596.577515,133.036865 
	C595.654541,140.255066 596.339050,147.121262 589.600708,150.774887 
	C591.563477,152.553146 594.068848,153.761368 594.767578,155.641144 
	C597.677734,163.470688 601.515991,166.942520 609.768555,166.990952 
	C618.857117,167.044266 627.351074,167.849518 632.200989,177.091644 
	C632.283447,177.248871 632.768188,177.194946 633.427673,177.293991 
	C633.776611,174.581039 634.123291,171.885834 634.616150,168.053833 
	C642.883423,169.218079 650.709167,170.313309 658.532715,171.423767 
	C666.737793,172.588394 674.913452,174.090668 683.157593,174.788589 
	C686.674805,175.086334 696.660034,176.631042 700.141235,177.645813 
	C710.555725,180.681641 721.024536,184.099792 732.139160,180.955887 
	C733.081238,180.689392 734.408508,180.856857 735.261597,181.341980 
	C749.452576,189.412079 764.281067,191.266800 779.818970,186.069122 
	C788.230286,196.933060 807.077026,201.400574 818.971375,195.410904 
	C823.717957,203.813690 828.149109,208.750824 841.864136,203.827911 
	C847.423218,206.672623 851.772522,209.123718 856.312622,211.146652 
	C859.638611,212.628647 863.263000,213.424789 866.669617,214.745392 
	C873.066223,217.225220 879.025330,216.901917 884.788513,212.788406 
M41.536263,120.003754 
	C38.151093,122.257332 34.765923,124.510918 31.384830,126.761780 
	C31.532452,128.056931 31.959410,129.538361 31.824200,130.966583 
	C30.460253,145.373886 28.504433,159.745255 27.717117,174.181351 
	C26.956148,188.134323 26.971769,202.163712 27.397758,216.136612 
	C27.741478,227.411041 36.650803,233.327484 47.456474,230.353638 
	C51.141624,229.339432 54.771954,228.087234 58.499279,227.273239 
	C66.119171,225.609146 72.599258,222.671021 74.450737,212.899689 
	C75.260384,215.296814 75.537720,217.220581 75.980316,217.259399 
	C80.919411,217.692429 85.882835,217.953232 90.842285,218.003281 
	C93.212448,218.027222 95.588142,217.502518 98.560059,217.156647 
	C98.993546,216.796005 99.916199,215.495590 101.132004,215.102936 
	C109.322159,212.457947 117.498840,209.707932 125.831688,207.588898 
	C132.014191,206.016678 136.936829,203.335785 139.402161,197.189545 
	C149.600739,203.802231 154.589584,203.272552 163.327423,194.914322 
	C164.185837,194.093201 165.862991,192.940643 166.502777,193.259796 
	C173.871735,196.935410 180.858414,193.471634 187.967896,192.412125 
	C194.215210,191.481140 199.418304,188.967606 202.308685,182.666016 
	C207.940552,187.949249 214.768356,190.069580 220.606277,185.679810 
	C225.957611,181.655914 230.142471,180.576065 236.722702,182.084900 
	C241.883926,183.268356 247.821411,180.657547 253.449493,180.314972 
	C260.877563,179.862854 266.489227,177.005341 268.842804,171.121536 
	C271.119110,172.341705 272.879272,173.879608 274.850708,174.230515 
	C280.762360,175.282745 286.762390,176.479721 292.716309,176.421967 
	C296.537750,176.384903 300.263611,173.802444 304.165070,173.122650 
	C311.354858,171.869843 318.753540,171.680191 325.857452,170.108643 
	C332.746735,168.584579 339.711578,169.123901 346.617828,168.183548 
	C354.359039,167.129532 361.753784,166.510864 365.839050,157.901154 
	C366.221252,159.797760 366.182281,161.658783 366.694519,161.825409 
	C371.344696,163.338150 376.024414,165.155228 380.828247,165.689346 
	C385.605682,166.220566 390.579926,165.705917 395.390900,165.068741 
	C407.148132,163.511566 413.094971,157.497803 412.073181,146.459961 
	C411.936584,144.984100 413.380890,143.361877 414.213440,141.544769 
	C413.254639,141.085907 411.645447,140.315781 410.570862,139.801514 
	C410.085052,136.513428 409.705383,133.943726 409.325684,131.374008 
	C408.688477,128.954529 406.998932,126.701057 406.145508,124.166100 
	C404.717438,119.924202 404.061462,115.421242 402.616180,111.186646 
	C401.719910,108.560707 402.491943,107.274841 404.556152,105.864571 
	C408.824066,102.948715 412.938965,99.808914 418.126801,96.024422 
	C411.223206,96.549934 405.759949,96.965813 400.384460,97.375008 
	C398.425781,92.749168 396.566803,88.358780 394.695038,83.938179 
	C396.622894,82.597992 398.083954,81.582298 399.692627,80.464005 
	C398.772705,79.913704 398.078705,79.457413 397.348846,79.068405 
	C390.722565,75.536682 390.723358,75.541557 394.233734,69.207840 
	C396.572815,64.987541 398.903107,60.762356 401.237335,56.539356 
	C400.937744,56.239391 400.638153,55.939430 400.338593,55.639465 
	C397.916748,56.500324 395.494934,57.361179 393.073120,58.222038 
	C393.853790,57.340763 394.634460,56.459484 395.415161,55.578209 
	C393.652008,55.031998 391.888855,54.485790 390.917664,54.184925 
	C392.928345,48.291122 395.105103,41.910439 397.010284,36.325863 
	C395.085205,35.162212 393.358551,33.932583 391.477722,33.021240 
	C387.831055,31.254278 384.099670,29.661715 380.399292,28.006145 
	C378.662842,27.229273 376.916809,26.473955 374.344574,25.344028 
	C373.513580,26.056734 371.661194,27.645412 369.617859,29.397877 
	C368.102753,27.389242 366.789703,25.648436 365.093414,23.399572 
	C363.063202,33.054733 356.195343,30.730762 350.135193,30.208443 
	C349.978577,32.251911 349.842957,34.021355 349.693909,35.966400 
	C346.897400,36.416283 344.317047,36.831394 341.450073,37.292610 
	C342.284943,40.385105 344.166748,43.530739 343.487244,45.959915 
	C342.860474,48.200642 339.484497,49.672348 337.267456,51.526234 
	C341.630249,55.374065 336.717682,59.720810 338.420410,65.629860 
	C333.553558,64.089554 330.165070,62.945351 326.732056,61.955383 
	C324.367920,61.273636 321.885101,60.159313 319.554749,60.364994 
	C312.934906,60.949284 306.231720,61.588211 299.824982,63.232677 
	C295.649567,64.304413 291.950073,67.199471 288.008057,69.220520 
	C284.382874,71.079155 281.387970,74.112572 276.438782,70.721275 
	C273.557678,68.747101 268.899658,69.433098 265.073212,68.744232 
	C263.059143,68.381645 261.113983,67.636688 259.298584,67.110977 
	C254.606995,72.953506 245.366699,71.941048 239.562469,77.733818 
	C238.101776,83.763069 236.556534,90.696869 234.692719,97.543945 
	C234.007538,100.061073 232.569443,102.373245 231.474808,104.778908 
	C230.147568,102.651367 228.887344,100.478294 227.479385,98.405579 
	C224.394592,93.864380 222.086243,88.167366 217.872101,85.194206 
	C213.445633,82.071243 207.164459,81.577148 201.145447,79.769577 
	C200.820648,78.585526 200.290848,76.654144 200.091827,75.928596 
	C198.115601,77.484131 196.215195,79.955719 193.777054,80.726608 
	C184.299942,83.723137 174.637558,86.128677 165.072861,88.855019 
	C158.827820,90.635109 152.512405,92.400650 149.934692,98.726952 
	C145.547775,97.438484 141.714035,96.431511 137.967255,95.166870 
	C135.761261,94.422272 133.693298,93.268730 131.148010,92.110092 
	C130.396469,92.757515 128.945892,94.888664 126.999588,95.541252 
	C114.022850,99.892220 100.940247,103.927406 87.950348,108.046700 
	C87.941963,108.003723 87.757027,107.055557 87.502357,105.749908 
	C82.974640,108.983200 79.028122,112.053024 74.804596,114.676979 
	C73.384262,115.559387 71.250824,115.580048 69.458557,115.522224 
	C64.743980,115.370102 60.032307,115.022293 55.330788,114.620186 
	C53.319748,114.448204 51.336807,113.947655 49.413300,113.609108 
	C49.788715,117.914734 44.997505,117.769455 41.536263,120.003754 
M563.418152,164.026520 
	C567.574707,162.735611 572.362793,162.333939 575.735046,159.938782 
	C580.419312,156.611725 581.317932,150.902756 580.409851,145.357376 
	C582.157043,144.790771 583.550903,144.338715 585.077515,143.843643 
	C583.257202,142.396545 580.892761,141.425217 580.242249,139.777298 
	C579.364563,137.553909 580.064392,134.764496 579.631104,132.298111 
	C578.437927,125.506477 577.166992,118.719131 575.593750,112.008156 
	C574.941345,109.225204 576.061523,108.150818 578.230957,107.038231 
	C582.813904,104.687889 587.288086,102.125420 591.806885,99.649956 
	C591.698669,99.332253 591.590454,99.014549 591.482239,98.696846 
	C585.740051,98.409996 579.997864,98.123146 575.044861,97.875725 
	C573.586365,92.794640 572.272400,88.216911 571.005615,83.803688 
	C573.078796,82.648056 574.474060,81.870331 576.267212,80.870811 
	C574.962402,79.919228 574.074768,79.242264 573.157593,78.607826 
	C567.993835,75.035728 567.996704,75.043083 571.756226,69.834999 
	C574.931274,65.436523 578.092102,61.027733 582.011047,55.578011 
	C575.833191,57.399597 570.984497,59.066734 566.010254,60.166687 
	C564.277283,60.549908 562.139832,59.781693 560.352295,59.103737 
	C556.243042,57.545219 552.243652,55.699120 548.182800,54.010262 
	C546.192322,53.182442 544.164246,52.444927 542.522583,51.809509 
	C536.541626,56.565128 527.760925,53.588627 521.375916,58.083229 
	C517.404297,66.673195 513.193542,75.780243 508.628540,85.653458 
	C507.633850,82.168823 507.072205,79.612320 506.181885,77.175949 
	C499.495880,58.879986 484.466522,49.880581 462.884399,52.437279 
	C453.348511,53.566933 443.973969,57.284058 435.791382,46.362347 
	C435.791382,51.119663 435.933746,53.756687 435.733398,56.367401 
	C435.627808,57.743069 435.333954,59.537376 434.420166,60.343971 
	C430.148712,64.114304 429.204346,68.951004 429.004272,74.279419 
	C428.566650,85.930710 427.910004,97.573601 427.394379,109.222191 
	C426.841858,121.703865 426.213074,134.184509 425.876770,146.672577 
	C425.652863,154.986786 431.068512,161.565186 438.454651,162.008804 
	C449.681335,162.683090 460.903595,162.824570 471.841522,159.414322 
	C473.788422,158.807312 476.162689,159.031067 477.771606,157.991837 
	C481.154327,155.806885 484.160065,153.038269 487.669037,150.230301 
	C491.088654,158.829147 497.428925,161.662369 505.798859,161.055603 
	C508.107452,160.888229 510.482300,161.057678 512.778198,161.399017 
	C520.170776,162.498001 527.144043,162.260803 532.126587,155.791412 
	C537.857788,159.770844 542.902710,163.066254 549.958557,163.877502 
	C554.266541,164.372849 558.384155,162.836517 563.418152,164.026520 
z"/>
<path fill="#F16102" opacity="1.000000" stroke="none" 
	d="
M41.878567,119.857361 
	C44.997505,117.769455 49.788715,117.914734 49.413300,113.609108 
	C51.336807,113.947655 53.319748,114.448204 55.330788,114.620186 
	C60.032307,115.022293 64.743980,115.370102 69.458557,115.522224 
	C71.250824,115.580048 73.384262,115.559387 74.804596,114.676979 
	C79.028122,112.053024 82.974640,108.983200 87.502357,105.749908 
	C87.757027,107.055557 87.941963,108.003723 87.950348,108.046700 
	C100.940247,103.927406 114.022850,99.892220 126.999588,95.541252 
	C128.945892,94.888664 130.396469,92.757515 131.148010,92.110092 
	C133.693298,93.268730 135.761261,94.422272 137.967255,95.166870 
	C141.714035,96.431511 145.547775,97.438484 149.934692,98.726952 
	C152.512405,92.400650 158.827820,90.635109 165.072861,88.855019 
	C174.637558,86.128677 184.299942,83.723137 193.777054,80.726608 
	C196.215195,79.955719 198.115601,77.484131 200.091827,75.928596 
	C200.290848,76.654144 200.820648,78.585526 201.145447,79.769577 
	C207.164459,81.577148 213.445633,82.071243 217.872101,85.194206 
	C222.086243,88.167366 224.394592,93.864380 227.479385,98.405579 
	C228.887344,100.478294 230.147568,102.651367 231.474808,104.778908 
	C232.569443,102.373245 234.007538,100.061073 234.692719,97.543945 
	C236.556534,90.696869 238.101776,83.763069 239.562469,77.733818 
	C245.366699,71.941048 254.606995,72.953506 259.298584,67.110977 
	C261.113983,67.636688 263.059143,68.381645 265.073212,68.744232 
	C268.899658,69.433098 273.557678,68.747101 276.438782,70.721275 
	C281.387970,74.112572 284.382874,71.079155 288.008057,69.220520 
	C291.950073,67.199471 295.649567,64.304413 299.824982,63.232677 
	C306.231720,61.588211 312.934906,60.949284 319.554749,60.364994 
	C321.885101,60.159313 324.367920,61.273636 326.732056,61.955383 
	C330.165070,62.945351 333.553558,64.089554 338.420410,65.629860 
	C336.717682,59.720810 341.630249,55.374065 337.267456,51.526234 
	C339.484497,49.672348 342.860474,48.200642 343.487244,45.959915 
	C344.166748,43.530739 342.284943,40.385105 341.450073,37.292610 
	C344.317047,36.831394 346.897400,36.416283 349.693909,35.966400 
	C349.842957,34.021355 349.978577,32.251911 350.135193,30.208443 
	C356.195343,30.730762 363.063202,33.054733 365.093414,23.399572 
	C366.789703,25.648436 368.102753,27.389242 369.617859,29.397877 
	C371.661194,27.645412 373.513580,26.056734 374.344574,25.344028 
	C376.916809,26.473955 378.662842,27.229273 380.399292,28.006145 
	C384.099670,29.661715 387.831055,31.254278 391.477722,33.021240 
	C393.358551,33.932583 395.085205,35.162212 397.010284,36.325863 
	C395.105103,41.910439 392.928345,48.291122 390.917664,54.184925 
	C391.888855,54.485790 393.652008,55.031998 395.415161,55.578209 
	C394.634460,56.459484 393.853790,57.340763 393.073120,58.222038 
	C395.494934,57.361179 397.916748,56.500324 400.338593,55.639465 
	C400.638153,55.939430 400.937744,56.239391 401.237335,56.539356 
	C398.903107,60.762356 396.572815,64.987541 394.233734,69.207840 
	C390.723358,75.541557 390.722565,75.536682 397.348846,79.068405 
	C398.078705,79.457413 398.772705,79.913704 399.692627,80.464005 
	C398.083954,81.582298 396.622894,82.597992 394.695038,83.938179 
	C396.566803,88.358780 398.425781,92.749168 400.384460,97.375008 
	C405.759949,96.965813 411.223206,96.549934 418.126801,96.024422 
	C412.938965,99.808914 408.824066,102.948715 404.556152,105.864571 
	C402.491943,107.274841 401.719910,108.560707 402.616180,111.186646 
	C404.061462,115.421242 404.717438,119.924202 406.145508,124.166100 
	C406.998932,126.701057 408.688477,128.954529 409.325684,131.374008 
	C409.705383,133.943726 410.085052,136.513428 410.570862,139.801514 
	C411.645447,140.315781 413.254639,141.085907 414.213440,141.544769 
	C413.380890,143.361877 411.936584,144.984100 412.073181,146.459961 
	C413.094971,157.497803 407.148132,163.511566 395.390900,165.068741 
	C390.579926,165.705917 385.605682,166.220566 380.828247,165.689346 
	C376.024414,165.155228 371.344696,163.338150 366.694519,161.825409 
	C366.182281,161.658783 366.221252,159.797760 365.839050,157.901154 
	C361.753784,166.510864 354.359039,167.129532 346.617828,168.183548 
	C339.711578,169.123901 332.746735,168.584579 325.857452,170.108643 
	C318.753540,171.680191 311.354858,171.869843 304.165070,173.122650 
	C300.263611,173.802444 296.537750,176.384903 292.716309,176.421967 
	C286.762390,176.479721 280.762360,175.282745 274.850708,174.230515 
	C272.879272,173.879608 271.119110,172.341705 268.842804,171.121536 
	C266.489227,177.005341 260.877563,179.862854 253.449493,180.314972 
	C247.821411,180.657547 241.883926,183.268356 236.722702,182.084900 
	C230.142471,180.576065 225.957611,181.655914 220.606277,185.679810 
	C214.768356,190.069580 207.940552,187.949249 202.308685,182.666016 
	C199.418304,188.967606 194.215210,191.481140 187.967896,192.412125 
	C180.858414,193.471634 173.871735,196.935410 166.502777,193.259796 
	C165.862991,192.940643 164.185837,194.093201 163.327423,194.914322 
	C154.589584,203.272552 149.600739,203.802231 139.402161,197.189545 
	C136.936829,203.335785 132.014191,206.016678 125.831688,207.588898 
	C117.498840,209.707932 109.322159,212.457947 101.132004,215.102936 
	C99.916199,215.495590 98.993546,216.796005 98.560059,217.156647 
	C95.588142,217.502518 93.212448,218.027222 90.842285,218.003281 
	C85.882835,217.953232 80.919411,217.692429 75.980316,217.259399 
	C75.537720,217.220581 75.260384,215.296814 74.450737,212.899689 
	C72.599258,222.671021 66.119171,225.609146 58.499279,227.273239 
	C54.771954,228.087234 51.141624,229.339432 47.456474,230.353638 
	C36.650803,233.327484 27.741478,227.411041 27.397758,216.136612 
	C26.971769,202.163712 26.956148,188.134323 27.717117,174.181351 
	C28.504433,159.745255 30.460253,145.373886 31.824200,130.966583 
	C31.959410,129.538361 31.532452,128.056931 31.384830,126.761780 
	C34.765923,124.510918 38.151093,122.257332 41.878567,119.857361 
M162.413040,177.839569 
	C164.619797,175.614182 163.588531,173.690826 161.877853,171.798843 
	C157.526657,166.986450 153.255402,162.099670 148.819427,157.367081 
	C146.972061,155.396179 146.434036,153.846313 148.159668,151.325287 
	C155.637802,140.400330 155.629547,128.931992 149.728561,117.388954 
	C145.530960,109.177872 137.811600,105.271538 128.896545,107.683769 
	C118.983017,110.366180 109.381721,114.183533 99.569962,117.269814 
	C95.297073,118.613853 94.478569,121.151718 95.235489,125.213890 
	C98.912910,144.949432 102.495102,164.703384 105.980598,184.473801 
	C108.695908,199.875534 110.109398,200.771149 124.908592,194.803848 
	C126.105537,194.321213 127.423103,191.869293 127.216301,190.565338 
	C126.308029,184.838364 125.093765,179.130753 123.513054,173.551376 
	C122.667168,170.565704 123.643341,168.743591 126.136513,168.176605 
	C127.787758,167.801117 130.395493,168.233246 131.484787,169.358871 
	C136.916061,174.971252 142.056442,180.872742 147.151352,186.799576 
	C149.389816,189.403595 151.251068,189.734039 153.641342,187.027390 
	C156.284760,184.034103 159.164581,181.249573 162.413040,177.839569 
M215.512817,145.975388 
	C214.026047,144.024582 212.539261,142.073776 210.938049,139.972824 
	C218.557800,131.964172 220.443802,122.555908 218.998932,112.167473 
	C217.190796,99.167191 209.363663,91.514053 196.456848,93.292328 
	C185.252289,94.836060 174.390167,99.031158 163.500702,102.449562 
	C162.359512,102.807800 161.313354,105.915329 161.489288,107.616333 
	C162.461380,117.014038 163.794861,126.375359 165.063889,135.741104 
	C167.000839,150.036377 169.006042,164.322403 170.936325,178.618561 
	C171.379807,181.903107 172.748566,183.374557 176.301544,182.396271 
	C179.973251,181.385284 183.747025,180.736633 187.487671,179.987061 
	C190.353775,179.412750 191.248352,177.973328 190.553528,174.990479 
	C189.275681,169.504562 188.472610,163.909714 187.289597,158.399353 
	C186.755173,155.910095 187.174164,154.460236 189.746948,153.359055 
	C192.205139,152.306931 193.820847,152.032791 195.683365,154.451569 
	C200.445511,160.635925 205.564301,166.544846 210.362778,172.702393 
	C212.670410,175.663620 214.716904,175.841690 217.283707,173.151703 
	C219.925797,170.382843 222.588547,167.610336 225.468292,165.098557 
	C228.048630,162.847961 228.085007,160.924088 225.856262,158.403000 
	C222.445404,154.544739 219.266113,150.481781 215.512817,145.975388 
M73.633507,135.902206 
	C73.084625,135.068771 72.557327,134.220154 71.983551,133.404236 
	C65.680283,124.440926 50.592636,124.363129 44.168224,133.297333 
	C43.615898,134.065430 43.269180,135.099686 43.161144,136.048355 
	C42.710518,140.005356 42.328770,143.972488 42.029186,147.943985 
	C41.179882,159.203049 40.035072,170.454666 39.664726,181.730820 
	C39.299850,192.840622 39.733055,203.976929 39.832073,215.101486 
	C39.866638,218.985077 41.969936,219.465393 45.172993,218.417648 
	C48.645008,217.281921 52.113956,215.903168 55.693478,215.384964 
	C60.961197,214.622406 62.625156,211.976974 62.082714,206.882034 
	C61.820438,204.418564 61.842541,200.600174 63.303196,199.525543 
	C67.737938,196.262787 72.937004,194.038910 78.057968,191.292664 
	C79.866188,195.676010 81.539909,199.127853 82.708900,202.742889 
	C83.806671,206.137711 85.405479,207.254150 88.954826,205.958740 
	C93.314049,204.367722 97.818802,203.137543 102.321098,201.988159 
	C106.117378,201.019028 106.686737,199.107468 104.952034,195.795486 
	C94.610085,176.050217 84.337372,156.268692 73.633507,135.902206 
M342.507843,155.977081 
	C353.013977,155.731216 352.942657,155.713654 355.472900,145.437546 
	C355.856628,143.879089 356.967896,141.731842 358.237457,141.295013 
	C363.204834,139.585800 368.370697,138.453568 374.044647,136.953049 
	C374.758362,141.126099 375.589966,144.825851 375.974426,148.571487 
	C376.340485,152.138382 377.947998,153.557693 381.520508,153.163406 
	C385.811737,152.689804 390.134613,152.511139 394.434906,152.109680 
	C400.411194,151.551758 400.563934,151.357788 399.011383,145.352310 
	C395.560089,132.002014 392.213562,118.620834 388.490997,105.345734 
	C385.890411,96.071869 383.059326,86.833885 379.720947,77.805511 
	C377.397247,71.521141 372.210236,68.726585 365.996033,69.080849 
	C356.083618,69.645943 353.045593,71.679649 350.465881,79.039238 
	C342.700409,101.192993 336.739807,123.823753 332.239502,146.855011 
	C330.381439,156.364014 330.304871,156.348801 340.091095,156.029068 
	C340.590698,156.012726 341.090607,156.007034 342.507843,155.977081 
M279.911285,92.672852 
	C274.711426,80.923454 270.224487,78.190643 255.600571,83.080338 
	C251.576859,84.425713 249.844131,86.847870 248.974747,90.747841 
	C246.917938,99.974312 244.136826,109.057213 242.446060,118.343369 
	C239.627396,133.824387 237.454086,149.422440 234.962006,164.963684 
	C234.236191,169.490051 236.419678,170.538361 240.373062,169.863464 
	C244.129654,169.222168 247.903900,168.265900 251.676331,168.237473 
	C256.884033,168.198227 258.131866,165.639313 258.131042,161.011353 
	C258.130615,158.540573 258.642273,154.678009 260.198059,153.855362 
	C265.185699,151.218048 270.768127,149.705597 276.348663,147.676300 
	C277.435303,152.402969 278.014557,156.381149 279.357880,160.082001 
	C279.933289,161.667282 282.165344,163.823135 283.529938,163.743912 
	C288.967316,163.428192 294.378174,162.439499 299.760010,161.481567 
	C302.206299,161.046127 303.513184,159.656464 302.504211,156.803802 
	C295.030121,135.671585 287.628937,114.513580 279.911285,92.672852 
M305.259552,150.070282 
	C305.496704,151.710068 305.984711,153.359695 305.920746,154.987656 
	C305.769806,158.828766 307.246948,160.611832 311.236298,160.025589 
	C315.825439,159.351212 320.419037,158.661224 325.034027,158.223877 
	C328.356598,157.909042 329.217529,156.231415 328.778412,153.190628 
	C327.770569,146.211426 326.681671,139.234238 326.002167,132.219742 
	C325.131470,123.231567 324.510468,114.214317 324.003723,105.197121 
	C323.491211,96.076912 323.177643,86.943489 322.923431,77.811775 
	C322.816498,73.969093 321.211823,72.330086 317.329346,72.919136 
	C313.887238,73.441353 310.425903,73.859314 306.961273,74.205292 
	C302.431274,74.657654 300.485077,76.535629 300.855133,81.590431 
	C302.503113,104.101738 303.750458,126.642380 305.259552,150.070282 
M370.746521,41.131485 
	C368.443726,41.435234 366.100861,41.568794 363.851349,42.098644 
	C362.168060,42.495121 359.867950,42.947121 359.117615,44.161942 
	C356.063110,49.107311 353.412872,54.313450 350.850494,59.539597 
	C350.471741,60.312099 351.470367,62.692329 351.653870,62.672626 
	C357.146942,62.082855 363.654541,62.866295 367.834595,60.126305 
	C373.309296,56.537674 377.013428,50.197506 381.293976,44.891525 
	C381.939240,44.091679 381.994629,42.290371 381.543823,41.310902 
	C381.226929,40.622437 379.576813,40.219082 378.542450,40.256287 
	C376.231689,40.339397 373.933716,40.777649 370.746521,41.131485 
M334.688293,73.299393 
	C334.866943,76.167946 335.045624,79.036499 335.224274,81.905060 
	C335.621368,81.971359 336.018494,82.037666 336.415588,82.103973 
	C337.650238,78.561234 338.884918,75.018494 340.662903,69.916702 
	C337.849854,71.095581 336.177704,71.796333 334.688293,73.299393 
z"/>
<path fill="#F16102" opacity="1.000000" stroke="none" 
	d="
M937.186768,202.872543 
	C935.807617,203.637955 932.744629,203.027573 934.664978,206.425400 
	C935.183655,207.343231 934.333496,209.034683 934.009949,210.983688 
	C934.602356,211.688446 935.644592,212.928391 936.461975,213.900879 
	C935.189636,215.163681 933.274719,216.176773 932.855347,217.623398 
	C929.970703,227.572998 923.063721,231.844513 911.125671,229.045044 
	C907.009521,228.079819 903.172363,225.828430 899.040894,225.047836 
	C892.620056,223.834641 889.286743,218.585922 884.605774,215.111755 
	C884.492981,215.028076 884.911438,214.228531 885.315918,213.322510 
	C885.197998,212.740082 884.846375,212.598007 884.494690,212.455948 
	C879.025330,216.901917 873.066223,217.225220 866.669617,214.745392 
	C863.263000,213.424789 859.638611,212.628647 856.312622,211.146652 
	C851.772522,209.123718 847.423218,206.672623 841.864136,203.827911 
	C828.149109,208.750824 823.717957,203.813690 818.971375,195.410904 
	C807.077026,201.400574 788.230286,196.933060 779.818970,186.069122 
	C764.281067,191.266800 749.452576,189.412079 735.261597,181.341980 
	C734.408508,180.856857 733.081238,180.689392 732.139160,180.955887 
	C721.024536,184.099792 710.555725,180.681641 700.141235,177.645813 
	C696.660034,176.631042 686.674805,175.086334 683.157593,174.788589 
	C674.913452,174.090668 666.737793,172.588394 658.532715,171.423767 
	C650.709167,170.313309 642.883423,169.218079 634.616150,168.053833 
	C634.123291,171.885834 633.776611,174.581039 633.427673,177.293991 
	C632.768188,177.194946 632.283447,177.248871 632.200989,177.091644 
	C627.351074,167.849518 618.857117,167.044266 609.768555,166.990952 
	C601.515991,166.942520 597.677734,163.470688 594.767578,155.641144 
	C594.068848,153.761368 591.563477,152.553146 589.600708,150.774887 
	C596.339050,147.121262 595.654541,140.255066 596.577515,133.036865 
	C599.278687,111.911400 603.428650,90.964973 607.251709,69.992279 
	C608.756531,61.737206 615.913635,57.062988 624.271362,58.205639 
	C628.887451,58.836746 633.565796,59.167347 638.105774,60.145584 
	C641.108337,60.792553 644.040710,62.112263 646.773193,63.565681 
	C649.406311,64.966240 651.742249,66.925392 653.617920,68.228600 
	C651.776672,79.427444 649.873535,90.914337 648.004333,102.406754 
	C646.992554,108.627800 646.038757,114.858276 644.996826,121.477943 
	C650.108826,121.995667 655.003479,122.673340 659.916687,122.858536 
	C661.115601,122.903732 662.848877,121.615417 663.535461,120.463013 
	C672.384521,105.610992 681.107666,90.683693 689.796997,75.737297 
	C690.601868,74.352768 690.959106,72.708023 691.380859,71.570671 
	C698.894165,70.675804 706.217285,69.803589 713.540466,68.931366 
	C713.416809,68.572456 713.293213,68.213547 713.169556,67.854637 
	C714.968872,68.888176 716.738342,69.978607 718.573975,70.943008 
	C722.061401,72.775177 725.450439,74.924477 729.135010,76.214584 
	C732.747620,77.479492 737.024780,79.206841 740.403870,78.347305 
	C751.695679,75.475006 762.546570,77.784973 772.694397,81.479706 
	C778.226196,83.493805 782.973572,84.377975 788.805542,84.690720 
	C797.419983,85.152679 806.943726,85.400162 814.038696,92.258232 
	C814.637634,92.837166 815.823486,92.879402 816.759338,93.028442 
	C829.549133,95.065094 842.329773,97.168983 855.148987,99.001686 
	C857.238159,99.300354 859.502563,98.372993 860.328064,98.236618 
	C862.506104,100.599739 864.063416,102.773048 866.071350,104.384781 
	C875.060730,111.600174 877.964600,121.232109 877.692200,132.276443 
	C877.655579,133.759201 878.178772,135.255768 878.442749,136.745956 
	C879.847351,135.907928 881.566650,135.349243 882.601685,134.183167 
	C886.910400,129.328857 891.050720,124.322510 895.164246,119.299408 
	C896.175415,118.064545 896.852478,116.556023 897.115295,116.118553 
	C905.127197,112.779671 913.215332,118.426598 920.096802,114.499001 
	C921.291199,115.581955 922.589661,116.892319 924.023071,118.033150 
	C927.855286,121.082993 931.684692,124.143684 935.646667,127.018997 
	C936.963196,127.974487 938.655762,128.873016 940.216431,128.946396 
	C945.338013,129.187134 950.478088,129.036896 956.520630,129.036896 
	C951.983582,132.826462 947.884399,136.245926 943.790100,139.671310 
	C938.808960,143.838623 938.814026,143.838013 943.190125,148.880981 
	C943.823303,149.610611 944.408569,150.381836 945.242493,151.414230 
	C934.373840,153.725433 941.563232,162.106522 939.373840,167.624680 
	C944.453796,169.198303 949.629822,170.801651 954.805786,172.404999 
	C954.874817,172.713760 954.943848,173.022522 955.012878,173.331268 
	C949.130371,174.947983 943.247925,176.564697 937.325745,178.192307 
	C936.584900,184.145905 935.643494,189.898804 935.266785,195.688461 
	C935.128662,197.811508 936.328247,200.021591 937.026367,202.547058 
	C937.135132,202.902130 937.186768,202.872543 937.186768,202.872543 
M807.785278,129.257950 
	C807.354736,130.515701 806.901245,131.766144 806.497253,133.032349 
	C801.902100,147.435211 797.467346,161.891998 792.639465,176.216324 
	C791.018982,181.024170 792.539612,183.023331 797.111389,183.832977 
	C800.048218,184.353119 802.963562,185.047485 805.840698,185.838135 
	C809.352722,186.803268 811.050964,185.451126 811.845032,182.010025 
	C813.038879,176.836823 814.761169,171.778671 815.805847,166.580566 
	C816.410156,163.573700 818.012451,162.331589 820.575684,163.097519 
	C822.233948,163.592987 824.381592,165.096619 824.818665,166.586136 
	C827.011719,174.058685 828.944519,181.628632 830.491699,189.261047 
	C831.294678,193.222244 833.210083,193.752686 836.457458,192.620956 
	C840.066650,191.363098 843.640259,189.994598 847.283081,188.844101 
	C850.680176,187.771210 851.539429,185.766220 850.614319,182.369827 
	C848.618347,175.042023 846.881958,167.643539 844.982910,160.048294 
	C855.315186,155.403748 861.851196,147.850357 864.439392,137.125580 
	C867.183594,125.754250 864.616150,114.076233 850.430847,110.767868 
	C840.627686,108.481506 830.462891,107.785156 820.577271,105.794556 
	C816.032715,104.879440 814.752319,106.749596 813.704895,110.437546 
	C811.981079,116.506783 809.915771,122.479012 807.785278,129.257950 
M862.024231,183.522049 
	C859.976868,186.757355 857.877014,189.960968 855.897888,193.237457 
	C854.166077,196.104630 854.458923,198.222000 858.168884,199.186111 
	C861.061157,199.937729 863.843933,201.101837 866.721619,201.920197 
	C875.694214,204.471924 875.652405,204.412460 880.364746,196.392517 
	C881.128052,195.093567 882.610474,193.213577 883.679565,193.265533 
	C889.371826,193.542160 895.038391,194.348251 900.968628,194.999054 
	C899.978455,199.419662 899.253906,202.996552 898.363464,206.531662 
	C897.494629,209.980911 898.038513,212.230881 902.089111,213.089890 
	C906.302368,213.983414 910.382324,215.502747 914.524109,216.736679 
	C919.781982,218.303177 920.444214,217.709396 921.025940,212.237595 
	C922.113953,202.002258 923.555603,191.803558 924.578186,181.562454 
	C925.832031,169.005066 927.301392,156.437683 927.756836,143.841339 
	C928.171021,132.384415 916.079468,123.911980 905.144470,127.278099 
	C904.121399,127.593048 903.118469,128.488968 902.453613,129.375610 
	C889.085205,147.204803 875.767822,165.072266 862.024231,183.522049 
M664.502563,160.102142 
	C668.426941,160.761017 672.498596,160.968597 676.239319,162.189957 
	C681.215942,163.814850 683.192444,161.807602 684.517944,157.386627 
	C685.195374,155.126968 686.531006,151.620529 688.077515,151.323380 
	C693.810120,150.221893 699.754150,150.220810 706.022888,149.777771 
	C705.640564,154.598694 705.453857,158.402100 705.006714,162.174622 
	C704.578125,165.791321 706.304138,167.376129 709.627441,167.878540 
	C713.726624,168.498245 717.803345,169.269272 721.905518,169.866287 
	C727.167542,170.632126 728.141663,169.822021 728.040771,164.496048 
	C727.700623,146.534241 727.506592,128.564972 726.784851,110.617531 
	C726.513611,103.873138 725.541870,97.024635 723.820679,90.505814 
	C721.866516,83.104866 705.971741,78.539940 699.899536,83.134262 
	C699.260498,83.617821 698.783813,84.358696 698.337830,85.048706 
	C683.952759,107.304459 671.396118,130.536484 660.951904,154.905426 
	C659.630188,157.989288 660.157532,159.710068 664.502563,160.102142 
M747.222168,101.752441 
	C743.062073,118.465416 738.474548,135.087570 734.897888,151.924500 
	C732.653503,162.489838 737.141296,169.687439 747.213196,173.433838 
	C751.973633,175.204544 757.133240,176.422852 762.189941,176.776047 
	C776.028320,177.742661 787.478882,169.712006 791.964355,155.108276 
	C796.195007,141.334076 799.272949,127.203430 802.780029,113.210060 
	C806.336609,99.019768 805.660950,98.152130 790.777039,96.967995 
	C790.611145,96.954796 790.441772,96.961090 790.279419,96.930145 
	C787.212708,96.345467 785.717529,97.692047 785.028198,100.683861 
	C783.463684,107.474548 781.735229,114.229462 779.960571,120.969208 
	C777.763123,129.314804 775.490601,137.641312 773.157288,145.949921 
	C772.668274,147.691254 771.932068,149.408936 771.036011,150.981552 
	C768.450317,155.519424 764.524109,157.188492 760.184387,155.553558 
	C755.197205,153.674683 755.394775,149.412537 756.426697,145.491821 
	C760.482422,130.082489 764.857666,114.757561 769.053772,99.384750 
	C770.772278,93.088692 770.702271,93.069572 764.241211,91.626190 
	C751.411072,88.759933 751.411072,88.759933 747.222168,101.752441 
M619.844788,71.536949 
	C619.587402,72.140877 619.194275,72.722832 619.092529,73.351906 
	C616.420166,89.875443 613.764343,106.401703 611.136169,122.932335 
	C609.783203,131.441910 608.388062,139.947067 607.225830,148.483322 
	C606.850098,151.242569 605.689880,154.754959 610.658264,155.058884 
	C625.065674,155.940216 639.460815,157.052063 653.877441,157.708740 
	C655.505371,157.782913 658.338074,155.809921 658.720886,154.305130 
	C659.938843,149.517670 660.270203,144.503815 660.929565,139.575470 
	C661.347839,136.448471 660.063477,135.077377 656.809875,134.866165 
	C649.531738,134.393661 642.282166,133.482559 635.004395,132.999313 
	C631.696838,132.779694 630.779724,131.649338 631.355042,128.294891 
	C634.267456,111.311745 637.015320,94.299255 639.613525,77.265427 
	C639.832031,75.832672 638.713989,72.938637 637.883240,72.805511 
	C632.108887,71.880188 626.246216,71.505470 619.844788,71.536949 
z"/>
<path fill="#F16103" opacity="1.000000" stroke="none" 
	d="
M562.952759,164.038544 
	C558.384155,162.836517 554.266541,164.372849 549.958557,163.877502 
	C542.902710,163.066254 537.857788,159.770844 532.126587,155.791412 
	C527.144043,162.260803 520.170776,162.498001 512.778198,161.399017 
	C510.482300,161.057678 508.107452,160.888229 505.798859,161.055603 
	C497.428925,161.662369 491.088654,158.829147 487.669037,150.230301 
	C484.160065,153.038269 481.154327,155.806885 477.771606,157.991837 
	C476.162689,159.031067 473.788422,158.807312 471.841522,159.414322 
	C460.903595,162.824570 449.681335,162.683090 438.454651,162.008804 
	C431.068512,161.565186 425.652863,154.986786 425.876770,146.672577 
	C426.213074,134.184509 426.841858,121.703865 427.394379,109.222191 
	C427.910004,97.573601 428.566650,85.930710 429.004272,74.279419 
	C429.204346,68.951004 430.148712,64.114304 434.420166,60.343971 
	C435.333954,59.537376 435.627808,57.743069 435.733398,56.367401 
	C435.933746,53.756687 435.791382,51.119663 435.791382,46.362347 
	C443.973969,57.284058 453.348511,53.566933 462.884399,52.437279 
	C484.466522,49.880581 499.495880,58.879986 506.181885,77.175949 
	C507.072205,79.612320 507.633850,82.168823 508.628540,85.653458 
	C513.193542,75.780243 517.404297,66.673195 521.375916,58.083229 
	C527.760925,53.588627 536.541626,56.565128 542.522583,51.809509 
	C544.164246,52.444927 546.192322,53.182442 548.182800,54.010262 
	C552.243652,55.699120 556.243042,57.545219 560.352295,59.103737 
	C562.139832,59.781693 564.277283,60.549908 566.010254,60.166687 
	C570.984497,59.066734 575.833191,57.399597 582.011047,55.578011 
	C578.092102,61.027733 574.931274,65.436523 571.756226,69.834999 
	C567.996704,75.043083 567.993835,75.035728 573.157593,78.607826 
	C574.074768,79.242264 574.962402,79.919228 576.267212,80.870811 
	C574.474060,81.870331 573.078796,82.648056 571.005615,83.803688 
	C572.272400,88.216911 573.586365,92.794640 575.044861,97.875725 
	C579.997864,98.123146 585.740051,98.409996 591.482239,98.696846 
	C591.590454,99.014549 591.698669,99.332253 591.806885,99.649956 
	C587.288086,102.125420 582.813904,104.687889 578.230957,107.038231 
	C576.061523,108.150818 574.941345,109.225204 575.593750,112.008156 
	C577.166992,118.719131 578.437927,125.506477 579.631104,132.298111 
	C580.064392,134.764496 579.364563,137.553909 580.242249,139.777298 
	C580.892761,141.425217 583.257202,142.396545 585.077515,143.843643 
	C583.550903,144.338715 582.157043,144.790771 580.409851,145.357376 
	C581.317932,150.902756 580.419312,156.611725 575.735046,159.938782 
	C572.362793,162.333939 567.574707,162.735611 562.952759,164.038544 
M455.878021,150.707352 
	C457.668762,152.158676 459.459473,153.610016 461.849640,155.547165 
	C462.453491,152.783630 462.857727,150.933594 463.994141,148.997360 
	C468.758148,146.720734 474.223541,145.289856 478.164917,142.021286 
	C495.368195,127.754684 502.137482,100.540871 493.993103,79.688805 
	C490.909912,71.794975 485.059692,66.783401 476.499298,64.942673 
	C465.022827,62.474895 454.462372,66.380135 443.811371,69.388329 
	C442.521332,69.752678 441.381836,72.750946 441.220856,74.618813 
	C440.735901,80.246773 440.842926,85.922729 440.585480,91.573875 
	C439.761047,109.670006 438.888733,127.763992 438.002716,145.857239 
	C437.856201,148.849014 439.175171,150.084091 442.147217,150.024689 
	C446.641632,149.934845 451.139893,150.034698 455.878021,150.707352 
M500.224060,142.976425 
	C499.029785,147.400635 500.795929,149.169312 505.272705,148.954742 
	C508.592743,148.795609 512.055786,148.494644 515.236084,149.218918 
	C521.201355,150.577469 523.147400,147.839722 524.199219,142.583176 
	C524.647217,140.344254 526.437500,137.221054 528.289124,136.640259 
	C533.106689,135.129181 538.295959,134.803116 543.818420,133.927948 
	C544.218079,138.601456 544.327271,142.906006 545.085510,147.093002 
	C545.348816,148.546326 547.088684,150.656677 548.380676,150.836151 
	C553.465820,151.542526 558.642212,151.581512 563.782471,151.904678 
	C566.990662,152.106354 568.484497,150.724518 568.058289,147.461960 
	C567.370544,142.197876 566.775818,136.919632 565.977051,131.672455 
	C563.406311,114.784279 561.227722,97.817551 557.999390,81.054161 
	C555.283630,66.952431 549.576660,63.961193 535.481140,66.513718 
	C531.642883,67.208778 529.862915,69.034882 528.298096,72.258980 
	C517.312256,94.894005 507.947235,118.161316 500.224060,142.976425 
z"/>
<path fill="#F16102" opacity="1.000000" stroke="none" 
	d="
M937.108887,202.916016 
	C937.157166,203.057846 937.231750,203.185776 937.306335,203.313721 
	C937.178162,203.256500 937.050049,203.199295 937.054321,203.007309 
	C937.186768,202.872543 937.135132,202.902130 937.108887,202.916016 
z"/>
<path fill="#FFE300" opacity="1.000000" stroke="none" 
	d="
M162.177246,178.106842 
	C159.164581,181.249573 156.284760,184.034103 153.641342,187.027390 
	C151.251068,189.734039 149.389816,189.403595 147.151352,186.799576 
	C142.056442,180.872742 136.916061,174.971252 131.484787,169.358871 
	C130.395493,168.233246 127.787758,167.801117 126.136513,168.176605 
	C123.643341,168.743591 122.667168,170.565704 123.513054,173.551376 
	C125.093765,179.130753 126.308029,184.838364 127.216301,190.565338 
	C127.423103,191.869293 126.105537,194.321213 124.908592,194.803848 
	C110.109398,200.771149 108.695908,199.875534 105.980598,184.473801 
	C102.495102,164.703384 98.912910,144.949432 95.235489,125.213890 
	C94.478569,121.151718 95.297073,118.613853 99.569962,117.269814 
	C109.381721,114.183533 118.983017,110.366180 128.896545,107.683769 
	C137.811600,105.271538 145.530960,109.177872 149.728561,117.388954 
	C155.629547,128.931992 155.637802,140.400330 148.159668,151.325287 
	C146.434036,153.846313 146.972061,155.396179 148.819427,157.367081 
	C153.255402,162.099670 157.526657,166.986450 161.877853,171.798843 
	C163.588531,173.690826 164.619797,175.614182 162.177246,178.106842 
M117.718918,131.208511 
	C115.273514,137.383759 118.477081,142.939194 118.882858,148.981400 
	C129.585983,145.265930 133.727112,139.750183 133.144958,131.137482 
	C132.929840,127.955101 131.374268,126.252068 128.452835,126.994408 
	C124.994759,127.873123 121.739975,129.551865 117.718918,131.208511 
z"/>
<path fill="#FFE200" opacity="1.000000" stroke="none" 
	d="
M215.750671,146.240540 
	C219.266113,150.481781 222.445404,154.544739 225.856262,158.403000 
	C228.085007,160.924088 228.048630,162.847961 225.468292,165.098557 
	C222.588547,167.610336 219.925797,170.382843 217.283707,173.151703 
	C214.716904,175.841690 212.670410,175.663620 210.362778,172.702393 
	C205.564301,166.544846 200.445511,160.635925 195.683365,154.451569 
	C193.820847,152.032791 192.205139,152.306931 189.746948,153.359055 
	C187.174164,154.460236 186.755173,155.910095 187.289597,158.399353 
	C188.472610,163.909714 189.275681,169.504562 190.553528,174.990479 
	C191.248352,177.973328 190.353775,179.412750 187.487671,179.987061 
	C183.747025,180.736633 179.973251,181.385284 176.301544,182.396271 
	C172.748566,183.374557 171.379807,181.903107 170.936325,178.618561 
	C169.006042,164.322403 167.000839,150.036377 165.063889,135.741104 
	C163.794861,126.375359 162.461380,117.014038 161.489288,107.616333 
	C161.313354,105.915329 162.359512,102.807800 163.500702,102.449562 
	C174.390167,99.031158 185.252289,94.836060 196.456848,93.292328 
	C209.363663,91.514053 217.190796,99.167191 218.998932,112.167473 
	C220.443802,122.555908 218.557800,131.964172 210.938049,139.972824 
	C212.539261,142.073776 214.026047,144.024582 215.750671,146.240540 
M183.364029,130.549850 
	C183.653702,131.494049 183.943375,132.438232 184.229706,133.371475 
	C193.486099,131.359726 199.230530,124.929718 199.087372,117.131966 
	C199.008865,112.856850 196.604721,111.173210 192.966660,112.141556 
	C189.492172,113.066360 185.783142,114.493118 183.209427,116.834084 
	C181.927002,118.000534 182.918076,121.706093 182.947891,124.262321 
	C182.969223,126.093384 183.102036,127.923149 183.364029,130.549850 
z"/>
<path fill="#FFE200" opacity="1.000000" stroke="none" 
	d="
M73.837463,136.200775 
	C84.337372,156.268692 94.610085,176.050217 104.952034,195.795486 
	C106.686737,199.107468 106.117378,201.019028 102.321098,201.988159 
	C97.818802,203.137543 93.314049,204.367722 88.954826,205.958740 
	C85.405479,207.254150 83.806671,206.137711 82.708900,202.742889 
	C81.539909,199.127853 79.866188,195.676010 78.057968,191.292664 
	C72.937004,194.038910 67.737938,196.262787 63.303196,199.525543 
	C61.842541,200.600174 61.820438,204.418564 62.082714,206.882034 
	C62.625156,211.976974 60.961197,214.622406 55.693478,215.384964 
	C52.113956,215.903168 48.645008,217.281921 45.172993,218.417648 
	C41.969936,219.465393 39.866638,218.985077 39.832073,215.101486 
	C39.733055,203.976929 39.299850,192.840622 39.664726,181.730820 
	C40.035072,170.454666 41.179882,159.203049 42.029186,147.943985 
	C42.328770,143.972488 42.710518,140.005356 43.161144,136.048355 
	C43.269180,135.099686 43.615898,134.065430 44.168224,133.297333 
	C50.592636,124.363129 65.680283,124.440926 71.983551,133.404236 
	C72.557327,134.220154 73.084625,135.068771 73.837463,136.200775 
M67.081108,167.437622 
	C65.439880,164.180573 63.798660,160.923508 62.157436,157.666458 
	C61.948322,157.822144 61.739208,157.977814 61.530094,158.133499 
	C61.530094,164.316895 61.530094,170.500290 61.530094,177.435669 
	C64.676651,176.363113 67.214424,175.498062 70.010391,174.544998 
	C68.999863,172.067871 68.194763,170.094284 67.081108,167.437622 
M93.882050,190.641632 
	C92.176910,188.265060 90.471771,185.888504 88.099052,182.581482 
	C84.873360,192.583633 93.404274,193.221008 97.322807,197.061279 
	C96.280022,195.137405 95.237228,193.213531 93.882050,190.641632 
z"/>
<path fill="#FFE200" opacity="1.000000" stroke="none" 
	d="
M342.049133,155.986725 
	C341.090607,156.007034 340.590698,156.012726 340.091095,156.029068 
	C330.304871,156.348801 330.381439,156.364014 332.239502,146.855011 
	C336.739807,123.823753 342.700409,101.192993 350.465881,79.039238 
	C353.045593,71.679649 356.083618,69.645943 365.996033,69.080849 
	C372.210236,68.726585 377.397247,71.521141 379.720947,77.805511 
	C383.059326,86.833885 385.890411,96.071869 388.490997,105.345734 
	C392.213562,118.620834 395.560089,132.002014 399.011383,145.352310 
	C400.563934,151.357788 400.411194,151.551758 394.434906,152.109680 
	C390.134613,152.511139 385.811737,152.689804 381.520508,153.163406 
	C377.947998,153.557693 376.340485,152.138382 375.974426,148.571487 
	C375.589966,144.825851 374.758362,141.126099 374.044647,136.953049 
	C368.370697,138.453568 363.204834,139.585800 358.237457,141.295013 
	C356.967896,141.731842 355.856628,143.879089 355.472900,145.437546 
	C352.942657,155.713654 353.013977,155.731216 342.049133,155.986725 
M368.087372,111.338524 
	C367.287964,108.302292 366.488556,105.266068 365.689148,102.229836 
	C365.243164,102.279137 364.797211,102.328430 364.351227,102.377724 
	C363.196594,107.990494 362.041962,113.603256 360.804138,119.620262 
	C364.220123,119.237892 366.779724,118.951385 369.744995,118.619469 
	C369.187927,116.239914 368.708099,114.190346 368.087372,111.338524 
M384.094391,134.579437 
	C384.010590,136.304993 383.181976,138.609512 383.986511,139.644547 
	C386.161530,142.442657 389.031036,144.700912 391.936401,147.470093 
	C390.786194,143.075195 390.002808,138.762268 388.487457,134.723984 
	C387.347137,131.685074 386.118835,131.687241 384.094391,134.579437 
M359.397888,106.266197 
	C357.687042,111.611824 355.976166,116.957451 354.265320,122.303070 
	C354.845001,122.475731 355.424683,122.648384 356.004364,122.821045 
	C357.653809,116.947296 359.303223,111.073555 360.952667,105.199814 
	C360.539246,105.341721 360.125824,105.483635 359.397888,106.266197 
z"/>
<path fill="#FFE200" opacity="1.000000" stroke="none" 
	d="
M280.058044,93.018265 
	C287.628937,114.513580 295.030121,135.671585 302.504211,156.803802 
	C303.513184,159.656464 302.206299,161.046127 299.760010,161.481567 
	C294.378174,162.439499 288.967316,163.428192 283.529938,163.743912 
	C282.165344,163.823135 279.933289,161.667282 279.357880,160.082001 
	C278.014557,156.381149 277.435303,152.402969 276.348663,147.676300 
	C270.768127,149.705597 265.185699,151.218048 260.198059,153.855362 
	C258.642273,154.678009 258.130615,158.540573 258.131042,161.011353 
	C258.131866,165.639313 256.884033,168.198227 251.676331,168.237473 
	C247.903900,168.265900 244.129654,169.222168 240.373062,169.863464 
	C236.419678,170.538361 234.236191,169.490051 234.962006,164.963684 
	C237.454086,149.422440 239.627396,133.824387 242.446060,118.343369 
	C244.136826,109.057213 246.917938,99.974312 248.974747,90.747841 
	C249.844131,86.847870 251.576859,84.425713 255.600571,83.080338 
	C270.224487,78.190643 274.711426,80.923454 280.058044,93.018265 
M260.439331,116.311394 
	C260.398407,116.950912 260.357513,117.590431 260.316589,118.229958 
	C260.549622,118.229080 260.782684,118.228203 261.015747,118.227325 
	C261.015747,117.489235 261.015747,116.751144 261.332062,115.924934 
	C261.217834,115.945580 261.103638,115.966225 260.439331,116.311394 
M262.792908,130.851013 
	C265.608429,130.836716 270.024597,131.855667 269.731415,127.876411 
	C269.351440,122.719559 266.932953,117.712906 265.392029,112.641602 
	C265.007629,112.753815 264.623199,112.866028 264.238800,112.978233 
	C263.566620,118.722496 262.894470,124.466751 262.792908,130.851013 
M293.868713,157.182068 
	C294.032471,157.210388 294.206024,157.284592 294.356842,157.252380 
	C294.475555,157.227020 294.672699,157.038406 294.654144,156.976639 
	C293.043152,151.614014 292.096069,145.918655 286.884338,141.271301 
	C286.222290,145.062134 284.544373,147.962906 287.575684,150.830612 
	C289.583710,152.730255 291.420593,154.810730 293.868713,157.182068 
M257.221466,127.663246 
	C256.873322,129.544632 256.525177,131.426010 256.177032,133.307404 
	C256.662750,133.374176 257.148438,133.440948 257.634155,133.507721 
	C258.517883,129.372864 259.401611,125.237991 260.285339,121.103134 
	C259.834503,121.010513 259.383667,120.917900 258.932831,120.825287 
	C258.473999,122.864929 258.015167,124.904572 257.221466,127.663246 
z"/>
<path fill="#FFE000" opacity="1.000000" stroke="none" 
	d="
M305.201080,149.621353 
	C303.750458,126.642380 302.503113,104.101738 300.855133,81.590431 
	C300.485077,76.535629 302.431274,74.657654 306.961273,74.205292 
	C310.425903,73.859314 313.887238,73.441353 317.329346,72.919136 
	C321.211823,72.330086 322.816498,73.969093 322.923431,77.811775 
	C323.177643,86.943489 323.491211,96.076912 324.003723,105.197121 
	C324.510468,114.214317 325.131470,123.231567 326.002167,132.219742 
	C326.681671,139.234238 327.770569,146.211426 328.778412,153.190628 
	C329.217529,156.231415 328.356598,157.909042 325.034027,158.223877 
	C320.419037,158.661224 315.825439,159.351212 311.236298,160.025589 
	C307.246948,160.611832 305.769806,158.828766 305.920746,154.987656 
	C305.984711,153.359695 305.496704,151.710068 305.201080,149.621353 
M305.050659,86.351921 
	C306.029083,83.494583 307.007538,80.637238 308.256897,76.988701 
	C305.885620,77.708237 304.432220,78.149254 303.192627,78.525391 
	C303.192627,82.277893 303.192627,85.606049 303.192627,89.852692 
	C303.941711,88.290825 304.269379,87.607605 305.050659,86.351921 
M304.990784,112.967224 
	C304.990784,117.298523 304.990784,121.629822 304.990784,125.961121 
	C305.411346,125.959236 305.831879,125.957352 306.252441,125.955460 
	C306.252441,120.479942 306.252441,115.004433 306.252441,109.528915 
	C305.968109,109.502335 305.683777,109.475761 305.399414,109.449188 
	C305.263092,110.335503 305.126740,111.221825 304.990784,112.967224 
z"/>
<path fill="#FFE000" opacity="1.000000" stroke="none" 
	d="
M371.188538,41.101357 
	C373.933716,40.777649 376.231689,40.339397 378.542450,40.256287 
	C379.576813,40.219082 381.226929,40.622437 381.543823,41.310902 
	C381.994629,42.290371 381.939240,44.091679 381.293976,44.891525 
	C377.013428,50.197506 373.309296,56.537674 367.834595,60.126305 
	C363.654541,62.866295 357.146942,62.082855 351.653870,62.672626 
	C351.470367,62.692329 350.471741,60.312099 350.850494,59.539597 
	C353.412872,54.313450 356.063110,49.107311 359.117615,44.161942 
	C359.867950,42.947121 362.168060,42.495121 363.851349,42.098644 
	C366.100861,41.568794 368.443726,41.435234 371.188538,41.101357 
z"/>
<path fill="#FEF7F2" opacity="1.000000" stroke="none" 
	d="
M334.596924,72.898239 
	C336.177704,71.796333 337.849854,71.095581 340.662903,69.916702 
	C338.884918,75.018494 337.650238,78.561234 336.415588,82.103973 
	C336.018494,82.037666 335.621368,81.971359 335.224274,81.905060 
	C335.045624,79.036499 334.866943,76.167946 334.596924,72.898239 
z"/>
<path fill="#FFE200" opacity="1.000000" stroke="none" 
	d="
M807.889832,128.875046 
	C809.915771,122.479012 811.981079,116.506783 813.704895,110.437546 
	C814.752319,106.749596 816.032715,104.879440 820.577271,105.794556 
	C830.462891,107.785156 840.627686,108.481506 850.430847,110.767868 
	C864.616150,114.076233 867.183594,125.754250 864.439392,137.125580 
	C861.851196,147.850357 855.315186,155.403748 844.982910,160.048294 
	C846.881958,167.643539 848.618347,175.042023 850.614319,182.369827 
	C851.539429,185.766220 850.680176,187.771210 847.283081,188.844101 
	C843.640259,189.994598 840.066650,191.363098 836.457458,192.620956 
	C833.210083,193.752686 831.294678,193.222244 830.491699,189.261047 
	C828.944519,181.628632 827.011719,174.058685 824.818665,166.586136 
	C824.381592,165.096619 822.233948,163.592987 820.575684,163.097519 
	C818.012451,162.331589 816.410156,163.573700 815.805847,166.580566 
	C814.761169,171.778671 813.038879,176.836823 811.845032,182.010025 
	C811.050964,185.451126 809.352722,186.803268 805.840698,185.838135 
	C802.963562,185.047485 800.048218,184.353119 797.111389,183.832977 
	C792.539612,183.023331 791.018982,181.024170 792.639465,176.216324 
	C797.467346,161.891998 801.902100,147.435211 806.497253,133.032349 
	C806.901245,131.766144 807.354736,130.515701 807.889832,128.875046 
M823.357483,141.859024 
	C829.881042,145.117203 838.748535,142.743698 842.688538,136.312592 
	C843.880005,134.367767 845.068176,131.256073 844.290161,129.607468 
	C843.558228,128.056473 840.286560,127.513123 838.027405,126.939537 
	C836.465454,126.542992 834.704529,127.012985 833.069214,126.805679 
	C829.860535,126.398918 828.144592,127.808235 827.209961,130.786301 
	C826.118591,134.263504 824.786804,137.665237 823.357483,141.859024 
z"/>
<path fill="#FFE200" opacity="1.000000" stroke="none" 
	d="
M862.232178,183.227036 
	C875.767822,165.072266 889.085205,147.204803 902.453613,129.375610 
	C903.118469,128.488968 904.121399,127.593048 905.144470,127.278099 
	C916.079468,123.911980 928.171021,132.384415 927.756836,143.841339 
	C927.301392,156.437683 925.832031,169.005066 924.578186,181.562454 
	C923.555603,191.803558 922.113953,202.002258 921.025940,212.237595 
	C920.444214,217.709396 919.781982,218.303177 914.524109,216.736679 
	C910.382324,215.502747 906.302368,213.983414 902.089111,213.089890 
	C898.038513,212.230881 897.494629,209.980911 898.363464,206.531662 
	C899.253906,202.996552 899.978455,199.419662 900.968628,194.999054 
	C895.038391,194.348251 889.371826,193.542160 883.679565,193.265533 
	C882.610474,193.213577 881.128052,195.093567 880.364746,196.392517 
	C875.652405,204.412460 875.694214,204.471924 866.721619,201.920197 
	C863.843933,201.101837 861.061157,199.937729 858.168884,199.186111 
	C854.458923,198.222000 854.166077,196.104630 855.897888,193.237457 
	C857.877014,189.960968 859.976868,186.757355 862.232178,183.227036 
M903.792847,160.397095 
	C900.881531,164.759354 897.970154,169.121628 894.631104,174.124756 
	C898.055786,174.900513 900.652222,175.488647 903.667725,176.171722 
	C904.510132,169.956314 905.258118,164.437042 906.006165,158.917770 
	C905.667908,158.820618 905.329590,158.723465 904.991272,158.626328 
	C904.702637,159.016220 904.413940,159.406097 903.792847,160.397095 
M914.681580,202.314789 
	C914.699463,200.676178 914.915161,199.006897 914.667419,197.409454 
	C914.494324,196.292908 913.687439,195.274612 913.163574,194.212463 
	C912.347351,195.036957 911.457031,195.800949 910.727051,196.695816 
	C906.113159,202.351273 913.895508,205.561035 913.698303,210.434113 
	C913.957520,207.999466 914.216736,205.564804 914.681580,202.314789 
z"/>
<path fill="#FFE200" opacity="1.000000" stroke="none" 
	d="
M664.093872,160.059509 
	C660.157532,159.710068 659.630188,157.989288 660.951904,154.905426 
	C671.396118,130.536484 683.952759,107.304459 698.337830,85.048706 
	C698.783813,84.358696 699.260498,83.617821 699.899536,83.134262 
	C705.971741,78.539940 721.866516,83.104866 723.820679,90.505814 
	C725.541870,97.024635 726.513611,103.873138 726.784851,110.617531 
	C727.506592,128.564972 727.700623,146.534241 728.040771,164.496048 
	C728.141663,169.822021 727.167542,170.632126 721.905518,169.866287 
	C717.803345,169.269272 713.726624,168.498245 709.627441,167.878540 
	C706.304138,167.376129 704.578125,165.791321 705.006714,162.174622 
	C705.453857,158.402100 705.640564,154.598694 706.022888,149.777771 
	C699.754150,150.220810 693.810120,150.221893 688.077515,151.323380 
	C686.531006,151.620529 685.195374,155.126968 684.517944,157.386627 
	C683.192444,161.807602 681.215942,163.814850 676.239319,162.189957 
	C672.498596,160.968597 668.426941,160.761017 664.093872,160.059509 
M701.216675,120.724899 
	C699.907715,123.673058 698.598816,126.621223 696.979858,130.267685 
	C700.222168,130.612457 702.744019,130.880630 705.641052,131.188690 
	C705.641052,125.026756 705.641052,119.441910 705.641052,113.857056 
	C705.347839,113.771004 705.054565,113.684952 704.761353,113.598900 
	C703.699219,115.756439 702.637085,117.913979 701.216675,120.724899 
M720.785278,153.155502 
	C720.439453,150.717712 720.611389,147.175201 716.900024,148.543625 
	C715.659119,149.001129 714.747253,153.182755 715.347229,155.156769 
	C716.318420,158.351791 718.663391,161.129181 720.812805,164.726456 
	C720.812805,160.761826 720.812805,157.381271 720.785278,153.155502 
z"/>
<path fill="#FFE300" opacity="1.000000" stroke="none" 
	d="
M747.367004,101.382530 
	C751.411072,88.759933 751.411072,88.759933 764.241211,91.626190 
	C770.702271,93.069572 770.772278,93.088692 769.053772,99.384750 
	C764.857666,114.757561 760.482422,130.082489 756.426697,145.491821 
	C755.394775,149.412537 755.197205,153.674683 760.184387,155.553558 
	C764.524109,157.188492 768.450317,155.519424 771.036011,150.981552 
	C771.932068,149.408936 772.668274,147.691254 773.157288,145.949921 
	C775.490601,137.641312 777.763123,129.314804 779.960571,120.969208 
	C781.735229,114.229462 783.463684,107.474548 785.028198,100.683861 
	C785.717529,97.692047 787.212708,96.345467 790.279419,96.930145 
	C790.441772,96.961090 790.611145,96.954796 790.777039,96.967995 
	C805.660950,98.152130 806.336609,99.019768 802.780029,113.210060 
	C799.272949,127.203430 796.195007,141.334076 791.964355,155.108276 
	C787.478882,169.712006 776.028320,177.742661 762.189941,176.776047 
	C757.133240,176.422852 751.973633,175.204544 747.213196,173.433838 
	C737.141296,169.687439 732.653503,162.489838 734.897888,151.924500 
	C738.474548,135.087570 743.062073,118.465416 747.367004,101.382530 
M749.962585,98.657990 
	C749.544250,100.780220 749.125977,102.902451 748.707642,105.024681 
	C749.149353,105.115356 749.591064,105.206024 750.032776,105.296700 
	C750.915894,101.774956 751.799011,98.253212 752.682129,94.731468 
	C752.320679,94.631126 751.959229,94.530792 751.597839,94.430458 
	C751.127319,95.593674 750.656860,96.756882 749.962585,98.657990 
M747.088135,110.776276 
	C747.174622,110.917336 747.234619,111.094032 747.357910,111.185585 
	C747.427795,111.237480 747.685608,111.187073 747.715698,111.119263 
	C748.202576,110.021858 748.666504,108.914268 749.135559,107.808983 
	C748.822510,107.675652 748.509399,107.542320 748.196350,107.408989 
	C747.814392,108.318588 747.432434,109.228188 747.088135,110.776276 
z"/>
<path fill="#FFE300" opacity="1.000000" stroke="none" 
	d="
M620.128357,71.245560 
	C626.246216,71.505470 632.108887,71.880188 637.883240,72.805511 
	C638.713989,72.938637 639.832031,75.832672 639.613525,77.265427 
	C637.015320,94.299255 634.267456,111.311745 631.355042,128.294891 
	C630.779724,131.649338 631.696838,132.779694 635.004395,132.999313 
	C642.282166,133.482559 649.531738,134.393661 656.809875,134.866165 
	C660.063477,135.077377 661.347839,136.448471 660.929565,139.575470 
	C660.270203,144.503815 659.938843,149.517670 658.720886,154.305130 
	C658.338074,155.809921 655.505371,157.782913 653.877441,157.708740 
	C639.460815,157.052063 625.065674,155.940216 610.658264,155.058884 
	C605.689880,154.754959 606.850098,151.242569 607.225830,148.483322 
	C608.388062,139.947067 609.783203,131.441910 611.136169,122.932335 
	C613.764343,106.401703 616.420166,89.875443 619.092529,73.351906 
	C619.194275,72.722832 619.587402,72.140877 620.128357,71.245560 
z"/>
<path fill="transparent" opacity="1.000000" stroke="none" 
	d="
M884.641602,212.622177 
	C884.846375,212.598007 885.197998,212.740082 885.328552,212.989548 
	C885.107422,213.096954 884.788513,212.788406 884.641602,212.622177 
z"/>
<path fill="#FFE200" opacity="1.000000" stroke="none" 
	d="
M455.636505,150.053955 
	C451.139893,150.034698 446.641632,149.934845 442.147217,150.024689 
	C439.175171,150.084091 437.856201,148.849014 438.002716,145.857239 
	C438.888733,127.763992 439.761047,109.670006 440.585480,91.573875 
	C440.842926,85.922729 440.735901,80.246773 441.220856,74.618813 
	C441.381836,72.750946 442.521332,69.752678 443.811371,69.388329 
	C454.462372,66.380135 465.022827,62.474895 476.499298,64.942673 
	C485.059692,66.783401 490.909912,71.794975 493.993103,79.688805 
	C502.137482,100.540871 495.368195,127.754684 478.164917,142.021286 
	C474.223541,145.289856 468.758148,146.720734 463.191803,149.020050 
	C460.138489,149.379807 457.887482,149.716873 455.636505,150.053955 
M472.227631,117.592857 
	C475.313995,109.568863 478.913391,101.742607 476.229401,92.657219 
	C473.957062,84.965279 470.274658,82.660255 462.714478,85.773766 
	C461.211487,86.392754 459.596527,88.800957 459.511688,90.459724 
	C459.047089,99.541496 459.133911,108.649841 458.833618,117.742523 
	C458.724854,121.035751 458.068817,124.310913 457.603607,128.070312 
	C465.085022,127.092834 469.216278,123.659035 472.227631,117.592857 
z"/>
<path fill="#FFE200" opacity="1.000000" stroke="none" 
	d="
M500.369385,142.589325 
	C507.947235,118.161316 517.312256,94.894005 528.298096,72.258980 
	C529.862915,69.034882 531.642883,67.208778 535.481140,66.513718 
	C549.576660,63.961193 555.283630,66.952431 557.999390,81.054161 
	C561.227722,97.817551 563.406311,114.784279 565.977051,131.672455 
	C566.775818,136.919632 567.370544,142.197876 568.058289,147.461960 
	C568.484497,150.724518 566.990662,152.106354 563.782471,151.904678 
	C558.642212,151.581512 553.465820,151.542526 548.380676,150.836151 
	C547.088684,150.656677 545.348816,148.546326 545.085510,147.093002 
	C544.327271,142.906006 544.218079,138.601456 543.818420,133.927948 
	C538.295959,134.803116 533.106689,135.129181 528.289124,136.640259 
	C526.437500,137.221054 524.647217,140.344254 524.199219,142.583176 
	C523.147400,147.839722 521.201355,150.577469 515.236084,149.218918 
	C512.055786,148.494644 508.592743,148.795609 505.272705,148.954742 
	C500.795929,149.169312 499.029785,147.400635 500.369385,142.589325 
M532.347534,104.289207 
	C531.880493,105.594627 531.413452,106.900040 530.946472,108.205460 
	C531.382019,108.312225 531.817627,108.418999 532.253174,108.525764 
	C532.527588,107.038811 532.801941,105.551857 533.431152,103.894493 
	C533.407959,103.695427 533.384827,103.496361 533.361633,103.297295 
	C533.212219,103.499229 533.062866,103.701164 532.347534,104.289207 
M528.708984,114.772781 
	C529.427612,113.393356 530.146240,112.013924 530.864868,110.634499 
	C530.394836,110.455956 529.924805,110.277405 529.454773,110.098862 
	C528.937134,111.705971 528.419556,113.313087 527.375854,115.218979 
	C527.107422,115.947090 526.839050,116.675194 526.570618,117.403297 
	C526.873291,117.495041 527.175964,117.586777 527.478638,117.678520 
	C527.697876,116.826225 527.917114,115.973938 528.708984,114.772781 
M536.197754,105.748329 
	C535.191345,108.865288 534.184998,111.982254 533.090942,115.370743 
	C536.307678,115.370743 538.987305,115.370743 542.226379,115.370743 
	C541.447205,109.188210 540.730835,103.503685 540.014404,97.819168 
	C539.717468,97.774399 539.420471,97.729637 539.123535,97.684868 
	C538.247009,100.131638 537.370544,102.578407 536.197754,105.748329 
M558.874573,134.262726 
	C558.162048,132.844864 557.449585,131.426987 556.737061,130.009109 
	C556.276001,129.992981 555.814941,129.976837 555.353943,129.960693 
	C554.824890,132.720062 553.214172,135.868027 554.031677,138.143661 
	C555.135681,141.216980 558.106384,143.619690 560.820801,146.985550 
	C560.132141,142.583389 559.541016,138.804916 558.874573,134.262726 
M534.190063,100.734337 
	C534.283813,100.992378 534.377625,101.250420 534.471375,101.508461 
	C534.493347,101.154221 534.515320,100.799980 534.190063,100.734337 
z"/>
<path fill="#FEF5E9" opacity="1.000000" stroke="none" 
	d="
M455.757263,150.380646 
	C457.887482,149.716873 460.138489,149.379807 462.825714,149.063141 
	C462.857727,150.933594 462.453491,152.783630 461.849640,155.547165 
	C459.459473,153.610016 457.668762,152.158676 455.757263,150.380646 
z"/>
<path fill="#F16200" opacity="1.000000" stroke="none" 
	d="
M118.057999,131.046173 
	C121.739975,129.551865 124.994759,127.873123 128.452835,126.994408 
	C131.374268,126.252068 132.929840,127.955101 133.144958,131.137482 
	C133.727112,139.750183 129.585983,145.265930 118.882858,148.981400 
	C118.477081,142.939194 115.273514,137.383759 118.057999,131.046173 
z"/>
<path fill="#F16100" opacity="1.000000" stroke="none" 
	d="
M183.274567,130.151672 
	C183.102036,127.923149 182.969223,126.093384 182.947891,124.262321 
	C182.918076,121.706093 181.927002,118.000534 183.209427,116.834084 
	C185.783142,114.493118 189.492172,113.066360 192.966660,112.141556 
	C196.604721,111.173210 199.008865,112.856850 199.087372,117.131966 
	C199.230530,124.929718 193.486099,131.359726 184.229706,133.371475 
	C183.943375,132.438232 183.653702,131.494049 183.274567,130.151672 
z"/>
<path fill="#F36E00" opacity="1.000000" stroke="none" 
	d="
M67.235382,167.779160 
	C68.194763,170.094284 68.999863,172.067871 70.010391,174.544998 
	C67.214424,175.498062 64.676651,176.363113 61.530094,177.435669 
	C61.530094,170.500290 61.530094,164.316895 61.530094,158.133499 
	C61.739208,157.977814 61.948322,157.822144 62.157436,157.666458 
	C63.798660,160.923508 65.439880,164.180573 67.235382,167.779160 
z"/>
<path fill="#F36E00" opacity="1.000000" stroke="none" 
	d="
M94.038239,190.965637 
	C95.237228,193.213531 96.280022,195.137405 97.322807,197.061279 
	C93.404274,193.221008 84.873360,192.583633 88.099052,182.581482 
	C90.471771,185.888504 92.176910,188.265060 94.038239,190.965637 
z"/>
<path fill="#F26500" opacity="1.000000" stroke="none" 
	d="
M368.157837,111.739655 
	C368.708099,114.190346 369.187927,116.239914 369.744995,118.619469 
	C366.779724,118.951385 364.220123,119.237892 360.804138,119.620262 
	C362.041962,113.603256 363.196594,107.990494 364.351227,102.377724 
	C364.797211,102.328430 365.243164,102.279137 365.689148,102.229836 
	C366.488556,105.266068 367.287964,108.302292 368.157837,111.739655 
z"/>
<path fill="#F26D00" opacity="1.000000" stroke="none" 
	d="
M384.080872,134.200867 
	C386.118835,131.687241 387.347137,131.685074 388.487457,134.723984 
	C390.002808,138.762268 390.786194,143.075195 391.936401,147.470093 
	C389.031036,144.700912 386.161530,142.442657 383.986511,139.644547 
	C383.181976,138.609512 384.010590,136.304993 384.080872,134.200867 
z"/>
<path fill="#F69000" opacity="1.000000" stroke="none" 
	d="
M359.555145,105.945869 
	C360.125824,105.483635 360.539246,105.341721 360.952667,105.199814 
	C359.303223,111.073555 357.653809,116.947296 356.004364,122.821045 
	C355.424683,122.648384 354.845001,122.475731 354.265320,122.303070 
	C355.976166,116.957451 357.687042,111.611824 359.555145,105.945869 
z"/>
<path fill="#F26700" opacity="1.000000" stroke="none" 
	d="
M262.507629,130.531006 
	C262.894470,124.466751 263.566620,118.722496 264.238800,112.978233 
	C264.623199,112.866028 265.007629,112.753815 265.392029,112.641602 
	C266.932953,117.712906 269.351440,122.719559 269.731415,127.876411 
	C270.024597,131.855667 265.608429,130.836716 262.507629,130.531006 
z"/>
<path fill="#F36E00" opacity="1.000000" stroke="none" 
	d="
M293.601410,156.996155 
	C291.420593,154.810730 289.583710,152.730255 287.575684,150.830612 
	C284.544373,147.962906 286.222290,145.062134 286.884338,141.271301 
	C292.096069,145.918655 293.043152,151.614014 294.654144,156.976639 
	C294.672699,157.038406 294.475555,157.227020 294.356842,157.252380 
	C294.206024,157.284592 294.032471,157.210388 293.601410,156.996155 
z"/>
<path fill="#F58800" opacity="1.000000" stroke="none" 
	d="
M257.388916,127.303726 
	C258.015167,124.904572 258.473999,122.864929 258.932831,120.825287 
	C259.383667,120.917900 259.834503,121.010513 260.285339,121.103134 
	C259.401611,125.237991 258.517883,129.372864 257.634155,133.507721 
	C257.148438,133.440948 256.662750,133.374176 256.177032,133.307404 
	C256.525177,131.426010 256.873322,129.544632 257.388916,127.303726 
z"/>
<path fill="#F58800" opacity="1.000000" stroke="none" 
	d="
M261.015747,116.013054 
	C261.015747,116.751144 261.015747,117.489235 261.015747,118.227325 
	C260.782684,118.228203 260.549622,118.229080 260.316589,118.229958 
	C260.357513,117.590431 260.398407,116.950912 260.720093,116.156075 
	C261.000885,116.000755 261.015747,116.013054 261.015747,116.013054 
z"/>
<path fill="#F58800" opacity="1.000000" stroke="none" 
	d="
M260.995148,115.993820 
	C261.103638,115.966225 261.217834,115.945580 261.173889,115.968994 
	C261.015747,116.013054 261.000885,116.000755 260.995148,115.993820 
z"/>
<path fill="#F26C00" opacity="1.000000" stroke="none" 
	d="
M304.823853,86.638153 
	C304.269379,87.607605 303.941711,88.290825 303.192627,89.852692 
	C303.192627,85.606049 303.192627,82.277893 303.192627,78.525391 
	C304.432220,78.149254 305.885620,77.708237 308.256897,76.988701 
	C307.007538,80.637238 306.029083,83.494583 304.823853,86.638153 
z"/>
<path fill="#F8A200" opacity="1.000000" stroke="none" 
	d="
M304.990601,112.537689 
	C305.126740,111.221825 305.263092,110.335503 305.399414,109.449188 
	C305.683777,109.475761 305.968109,109.502335 306.252441,109.528915 
	C306.252441,115.004433 306.252441,120.479942 306.252441,125.955460 
	C305.831879,125.957352 305.411346,125.959236 304.990784,125.961121 
	C304.990784,121.629822 304.990784,117.298523 304.990601,112.537689 
z"/>
<path fill="#F16100" opacity="1.000000" stroke="none" 
	d="
M823.458374,141.479370 
	C824.786804,137.665237 826.118591,134.263504 827.209961,130.786301 
	C828.144592,127.808235 829.860535,126.398918 833.069214,126.805679 
	C834.704529,127.012985 836.465454,126.542992 838.027405,126.939537 
	C840.286560,127.513123 843.558228,128.056473 844.290161,129.607468 
	C845.068176,131.256073 843.880005,134.367767 842.688538,136.312592 
	C838.748535,142.743698 829.881042,145.117203 823.458374,141.479370 
z"/>
<path fill="#F26700" opacity="1.000000" stroke="none" 
	d="
M903.959045,160.096542 
	C904.413940,159.406097 904.702637,159.016220 904.991272,158.626328 
	C905.329590,158.723465 905.667908,158.820618 906.006165,158.917770 
	C905.258118,164.437042 904.510132,169.956314 903.667725,176.171722 
	C900.652222,175.488647 898.055786,174.900513 894.631104,174.124756 
	C897.970154,169.121628 900.881531,164.759354 903.959045,160.096542 
z"/>
<path fill="#F36F00" opacity="1.000000" stroke="none" 
	d="
M914.578735,202.722473 
	C914.216736,205.564804 913.957520,207.999466 913.698303,210.434113 
	C913.895508,205.561035 906.113159,202.351273 910.727051,196.695816 
	C911.457031,195.800949 912.347351,195.036957 913.163574,194.212463 
	C913.687439,195.274612 914.494324,196.292908 914.667419,197.409454 
	C914.915161,199.006897 914.699463,200.676178 914.578735,202.722473 
z"/>
<path fill="#F26400" opacity="1.000000" stroke="none" 
	d="
M701.395874,120.398209 
	C702.637085,117.913979 703.699219,115.756439 704.761353,113.598900 
	C705.054565,113.684952 705.347839,113.771004 705.641052,113.857056 
	C705.641052,119.441910 705.641052,125.026756 705.641052,131.188690 
	C702.744019,130.880630 700.222168,130.612457 696.979858,130.267685 
	C698.598816,126.621223 699.907715,123.673058 701.395874,120.398209 
z"/>
<path fill="#F26C00" opacity="1.000000" stroke="none" 
	d="
M720.799072,153.578110 
	C720.812805,157.381271 720.812805,160.761826 720.812805,164.726456 
	C718.663391,161.129181 716.318420,158.351791 715.347229,155.156769 
	C714.747253,153.182755 715.659119,149.001129 716.900024,148.543625 
	C720.611389,147.175201 720.439453,150.717712 720.799072,153.578110 
z"/>
<path fill="#F58300" opacity="1.000000" stroke="none" 
	d="
M750.074463,98.289047 
	C750.656860,96.756882 751.127319,95.593674 751.597839,94.430458 
	C751.959229,94.530792 752.320679,94.631126 752.682129,94.731468 
	C751.799011,98.253212 750.915894,101.774956 750.032776,105.296700 
	C749.591064,105.206024 749.149353,105.115356 748.707642,105.024681 
	C749.125977,102.902451 749.544250,100.780220 750.074463,98.289047 
z"/>
<path fill="#F58300" opacity="1.000000" stroke="none" 
	d="
M747.069336,110.457031 
	C747.432434,109.228188 747.814392,108.318588 748.196350,107.408989 
	C748.509399,107.542320 748.822510,107.675652 749.135559,107.808983 
	C748.666504,108.914268 748.202576,110.021858 747.715698,111.119263 
	C747.685608,111.187073 747.427795,111.237480 747.357910,111.185585 
	C747.234619,111.094032 747.174622,110.917336 747.069336,110.457031 
z"/>
<path fill="#F16000" opacity="1.000000" stroke="none" 
	d="
M472.077118,117.933388 
	C469.216278,123.659035 465.085022,127.092834 457.603607,128.070312 
	C458.068817,124.310913 458.724854,121.035751 458.833618,117.742523 
	C459.133911,108.649841 459.047089,99.541496 459.511688,90.459724 
	C459.596527,88.800957 461.211487,86.392754 462.714478,85.773766 
	C470.274658,82.660255 473.957062,84.965279 476.229401,92.657219 
	C478.913391,101.742607 475.313995,109.568863 472.077118,117.933388 
z"/>
<path fill="#F26500" opacity="1.000000" stroke="none" 
	d="
M536.345886,105.386749 
	C537.370544,102.578407 538.247009,100.131638 539.123535,97.684868 
	C539.420471,97.729637 539.717468,97.774399 540.014404,97.819168 
	C540.730835,103.503685 541.447205,109.188210 542.226379,115.370743 
	C538.987305,115.370743 536.307678,115.370743 533.090942,115.370743 
	C534.184998,111.982254 535.191345,108.865288 536.345886,105.386749 
z"/>
<path fill="#F36F00" opacity="1.000000" stroke="none" 
	d="
M558.912231,134.644577 
	C559.541016,138.804916 560.132141,142.583389 560.820801,146.985550 
	C558.106384,143.619690 555.135681,141.216980 554.031677,138.143661 
	C553.214172,135.868027 554.824890,132.720062 555.353943,129.960693 
	C555.814941,129.976837 556.276001,129.992981 556.737061,130.009109 
	C557.449585,131.426987 558.162048,132.844864 558.912231,134.644577 
z"/>
<path fill="#F58300" opacity="1.000000" stroke="none" 
	d="
M527.901917,114.920197 
	C528.419556,113.313087 528.937134,111.705971 529.454773,110.098862 
	C529.924805,110.277405 530.394836,110.455956 530.864868,110.634499 
	C530.146240,112.013924 529.427612,113.393356 528.364441,114.896416 
	C528.019897,115.020050 527.901917,114.920197 527.901917,114.920197 
z"/>
<path fill="#F58300" opacity="1.000000" stroke="none" 
	d="
M533.076294,104.064896 
	C532.801941,105.551857 532.527588,107.038811 532.253174,108.525764 
	C531.817627,108.418999 531.382019,108.312225 530.946472,108.205460 
	C531.413452,106.900040 531.880493,105.594627 532.669739,104.138062 
	C532.991943,103.986916 533.076294,104.064896 533.076294,104.064896 
z"/>
<path fill="#F58300" opacity="1.000000" stroke="none" 
	d="
M528.078125,115.070847 
	C527.917114,115.973938 527.697876,116.826225 527.478638,117.678520 
	C527.175964,117.586777 526.873291,117.495041 526.570618,117.403297 
	C526.839050,116.675194 527.107422,115.947090 527.638916,115.069588 
	C527.901917,114.920197 528.019897,115.020050 528.078125,115.070847 
z"/>
<path fill="#F58300" opacity="1.000000" stroke="none" 
	d="
M534.363647,100.590042 
	C534.515320,100.799980 534.493347,101.154221 534.471375,101.508461 
	C534.377625,101.250420 534.283813,100.992378 534.363647,100.590042 
z"/>
<path fill="#F58300" opacity="1.000000" stroke="none" 
	d="
M532.952698,103.945007 
	C533.062866,103.701164 533.212219,103.499229 533.361633,103.297295 
	C533.384827,103.496361 533.407959,103.695427 533.253723,103.979691 
	C533.076294,104.064896 532.991943,103.986916 532.952698,103.945007 
z"/>
</svg>